<?xml version="1.0" standalone="no"?>
<!DOCTYPE svg PUBLIC "-//W3C//DTD SVG 1.1//EN" "http://www.w3.org/Graphics/SVG/1.1/DTD/svg11.dtd" >
<svg xmlns="http://www.w3.org/2000/svg">
<metadata></metadata>
<defs>
<font id="timelessef-lightregular" horiz-adv-x="1024" >
<font-face units-per-em="2048" ascent="1638" descent="-410" />
<missing-glyph horiz-adv-x="512" />
<glyph horiz-adv-x="2048" />
<glyph horiz-adv-x="2048" />
<glyph unicode="&#xd;" horiz-adv-x="2048" />
<glyph unicode=" " horiz-adv-x="512" d="M0 0z" />
<glyph unicode="!" horiz-adv-x="583" d="M213 96q0 48 34 82.5t83 34.5t82.5 -34.5t33.5 -84.5q0 -48 -33.5 -82.5t-80.5 -34.5q-50 0 -84.5 34.5t-34.5 84.5zM227 1237q0 74 27 113t78 39q49 0 76.5 -38t27.5 -106q0 -46 -4 -92l-76 -762h-49l-74 744q-1 16 -3.5 52t-2.5 50z" />
<glyph unicode="&#x22;" horiz-adv-x="663" d="M111 1366h157l-26 -549h-107zM397 1366h158l-27 -549h-106z" />
<glyph unicode="#" horiz-adv-x="1228" d="M70 426l20 131h229l41 279h-227l19 131h229l61 399h146l-62 -399h281l61 399h148l-62 -399h226l-21 -131h-223l-43 -279h225l-20 -131h-226l-65 -426h-148l66 426h-281l-65 -426h-146l66 426h-229zM465 557h280l43 279h-280z" />
<glyph unicode="$" d="M115 1028q0 157 95.5 248t268.5 102v187h86v-189q80 -5 166 -26q80 -19 154 -54v-350h-51q-6 160 -71 244t-198 106v-512q199 -98 286 -200.5t87 -237.5q0 -156 -99 -254t-274 -115v-188h-86v188q-96 5 -154 16t-161 46l-43 14v373h53q6 -173 78 -259t227 -106v549 q-32 18 -39 23q-122 72 -188 123q-137 104 -137 272zM272 1096q0 -80 68 -154q36 -39 115 -90l24 -16v460q-97 -12 -152 -65t-55 -135zM565 61q193 62 193 246q0 78 -42.5 133.5t-150.5 118.5v-498z" />
<glyph unicode="%" horiz-adv-x="1378" d="M119 1016q0 161 64 263.5t165 102.5q95 0 154 -96.5t59 -251.5v-16q-5 -157 -67 -251.5t-162 -94.5q-95 0 -154 95t-59 249zM231 1020q0 -140 28.5 -216.5t80.5 -76.5q49 0 79 83.5t30 221.5q0 295 -107 295q-52 0 -81.5 -81t-29.5 -226zM262 -100l766 1562h96 l-768 -1562h-94zM817 324q0 161 65 262.5t167 101.5q94 0 152.5 -95.5t58.5 -250.5v-16q-4 -157 -67 -251.5t-161 -94.5q-97 0 -156 94.5t-59 249.5zM932 326q0 -138 27.5 -214.5t78.5 -76.5t81 83t30 222q0 295 -109 295q-51 0 -79.5 -81.5t-28.5 -227.5z" />
<glyph unicode="&#x26;" horiz-adv-x="1558" d="M106 295q0 129 89 246q40 47 92 90q59 48 166 106l36 21q-4 15 -11.5 37.5l-10.5 31.5q-41 127 -41 226q0 148 89 244t226 96q107 0 180.5 -72.5t73.5 -179.5q0 -62 -28 -123q-21 -49 -70 -98q-41 -41 -170 -115l-45 -25q43 -90 68 -135q56 -100 75 -131q33 -52 103 -149 q9 14 23 31.5t16 21.5q53 75 94 160q55 117 55 182q0 32 -16 43.5t-62 11.5h-20v47h399v-47q-81 -6 -121 -35q-30 -20 -53 -53q-33 -46 -53 -82q-6 -12 -22.5 -41t-26.5 -47q-3 -7 -9 -17t-8 -14l-14 -24q-8 -13 -33 -53q-57 -93 -98 -146q84 -99 149 -140.5t134 -41.5 q59 0 97.5 32.5t70.5 108.5l47 -20q-31 -117 -117.5 -197t-183.5 -80q-86 0 -154 47q-58 37 -170 146q-58 -47 -86 -66q-92 -67 -169 -97t-157 -30q-146 0 -240 92.5t-94 237.5zM297 381q0 -122 67 -202.5t168 -80.5q126 0 267 117q-4 5 -12 15.5t-11 13.5q-47 57 -117 176 q-77 128 -137 264q-77 -43 -121 -82q-49 -44 -76.5 -102.5t-27.5 -118.5zM594 1118q0 -73 16 -145q14 -58 43 -123q87 46 127 86q41 41 64.5 96t23.5 109q0 75 -38 125.5t-95 50.5q-64 0 -102.5 -54t-38.5 -145z" />
<glyph unicode="'" horiz-adv-x="376" d="M111 1366h157l-26 -549h-107z" />
<glyph unicode="(" horiz-adv-x="681" d="M133 518q0 293 145.5 536.5t383.5 350.5v-49q-11 -7 -26.5 -17t-19.5 -12q-122 -81 -196 -248q-51 -108 -76 -260q-27 -167 -27 -307q0 -124 22.5 -261t59.5 -237q53 -141 136 -227q31 -34 55 -53t69 -45v-51q-237 113 -381.5 353.5t-144.5 526.5z" />
<glyph unicode=")" horiz-adv-x="681" d="M18 1356v49q238 -106 383.5 -350t145.5 -537q0 -285 -144.5 -526t-382.5 -354v51q68 38 114 83.5t87 114.5q68 119 105 279q39 175 39 346q0 104 -16.5 231t-41.5 213q-40 141 -123 256q-38 51 -70.5 79t-95.5 65z" />
<glyph unicode="*" horiz-adv-x="827" d="M86 872q0 22 8 35q15 23 40 34.5t108 35.5q4 2 11 4t18.5 5.5t21.5 6.5l10 2q7 2 14.5 5l20 8t24.5 10q-33 14 -63 24l-14 5q-17 7 -54 16q-57 17 -79 27q-66 23 -66 84q0 29 19.5 48t50.5 19q23 0 49.5 -17t73.5 -63q36 -36 40 -39l15 -12l20 -20l33 -25q-11 64 -12 68 l-4 20q-1 7 -6 25.5t-7 27.5q-18 68 -18 94q0 39 21.5 64t54.5 25q34 0 52.5 -23t18.5 -63q0 -27 -20 -103q-9 -39 -12 -55l-4 -19l-7 -28l-4 -33q28 19 54 41l12 12q9 9 17 16.5t13.5 12.5t6.5 6q57 57 79.5 71.5t51.5 14.5q30 0 50.5 -20.5t20.5 -49.5q0 -21 -8 -32 q-17 -27 -41.5 -39.5t-103.5 -34.5q-2 -1 -49 -16l-15 -5q-2 0 -4.5 -1t-8 -3t-11.5 -4q-2 -1 -41 -14q9 -2 21.5 -6.5t15.5 -5.5q10 -3 18.5 -6.5t12 -5t4.5 -1.5l18 -6q4 -2 11 -4t18 -5t18 -5q80 -22 110.5 -44t30.5 -59q0 -31 -18.5 -52t-46.5 -21q-52 0 -133 84 q-9 9 -20 19.5t-13 12.5l-14 15q-24 21 -56 43l6 -37l7 -35l2 -14q1 -5 6 -25t8 -33q18 -68 18 -94q0 -38 -20.5 -61t-54.5 -23q-32 0 -51 22t-19 60q0 32 16 101q6 18 11 43l4 20q10 41 14 76q-5 -4 -16 -14t-15 -13q-1 -1 -4 -3t-8.5 -7t-11.5 -10l-13 -13q-2 -2 -7 -6.5 t-10 -9.5t-9 -10q-51 -52 -78 -70t-53 -18q-32 0 -54 21t-22 52z" />
<glyph unicode="+" d="M68 614v134h372v352h144v-352h372v-134h-372v-352h-144v352h-372z" />
<glyph unicode="," horiz-adv-x="518" d="M119 84q0 47 30 76.5t76 29.5q77 0 126.5 -60.5t49.5 -154.5q0 -115 -73 -204q-33 -37 -68 -60q-76 -57 -100 -57q-9 0 -16 6.5t-7 15.5q0 11 10 21l15 8q151 116 151 238q0 59 -30 59q-6 0 -27 -6l-14 -4q-15 -6 -31 -6q-40 0 -66 27.5t-26 70.5z" />
<glyph unicode="-" horiz-adv-x="458" d="M0 428v162h459v-162h-459z" />
<glyph unicode="." horiz-adv-x="565" d="M180 96q0 48 34 82.5t83 34.5t83 -34.5t34 -84.5q0 -47 -34 -82t-81 -35q-49 0 -84 34.5t-35 84.5z" />
<glyph unicode="/" horiz-adv-x="765" d="M68 0l536 1366h94l-540 -1366h-90z" />
<glyph unicode="0" d="M82 698q0 308 120 501.5t310 193.5q125 0 223 -91t152.5 -255.5t54.5 -372.5q0 -202 -55 -362.5t-153.5 -249.5t-223.5 -89q-138 0 -252 117q-176 185 -176 608zM270 682q0 -154 25 -324q22 -160 75 -235.5t144 -75.5q60 0 105.5 34t70.5 97q64 162 64 486v22 q-3 150 -23 309q-20 164 -74.5 243t-148.5 79q-57 0 -102 -34t-70 -97q-38 -90 -47 -197q-19 -186 -19 -307z" />
<glyph unicode="1" d="M178 1155v59q92 27 193 68q83 34 131.5 59.5t126.5 77.5v-1138q0 -159 76 -199q46 -24 167 -33v-49h-673v49q122 6 180 39q36 21 57 68t21 110v797q0 81 -21 108t-82 27q-30 0 -63 -8t-113 -35z" />
<glyph unicode="2" d="M72 0v49q84 76 137 129q141 149 227 258q230 294 230 506q0 126 -72 207.5t-186 81.5q-91 0 -154.5 -56.5t-89.5 -160.5h-49q19 174 117 276.5t247 102.5q154 0 257.5 -110.5t103.5 -274.5q0 -178 -146 -394q-36 -52 -92 -122q-97 -119 -199 -228q-99 -107 -108 -117h360 q87 0 129.5 21t71.5 78h47l-94 -246h-737z" />
<glyph unicode="3" d="M113 113q0 37 26.5 63.5t63.5 26.5q39 0 78 -27l22 -16q11 -11 19 -15q13 -11 43 -34q43 -29 92 -29q94 0 160.5 81.5t66.5 196.5q0 172 -125 261q-46 32 -92.5 44t-136.5 13v49q126 3 211.5 88.5t85.5 208.5q0 101 -56 160t-151 59q-162 0 -211 -162h-47 q17 135 103.5 223.5t201.5 88.5q131 0 223 -86t92 -207q0 -117 -71 -203q-20 -27 -41 -45t-64 -45q57 -34 77.5 -48t45.5 -36q55 -47 87 -119t32 -149q0 -122 -70 -234.5t-185.5 -181t-240.5 -68.5q-97 0 -168 42.5t-71 99.5z" />
<glyph unicode="4" d="M68 365v178l587 852h88v-883h185v-147h-185v-365h-159v365h-516zM147 512h437v631z" />
<glyph unicode="5" d="M127 109q0 31 19.5 50t48.5 19q26 0 69 -26l27 -17q85 -55 160 -55q114 0 192 90t78 219q0 111 -75 212.5t-200.5 164t-265.5 65.5l234 535h473l-62 -147h-393l-98 -228q104 -24 172 -52t135 -73q211 -149 211 -393q0 -100 -40 -192.5t-106 -160t-157 -107.5t-189 -40 q-105 0 -169 37.5t-64 98.5z" />
<glyph unicode="6" d="M100 504q0 236 107.5 444.5t289 333.5t388.5 127v-49q-94 -13 -182 -54.5t-154 -103.5q-72 -69 -129.5 -182.5t-91.5 -253.5q131 82 247 82q145 0 237.5 -112t92.5 -287q0 -207 -115.5 -342.5t-293.5 -135.5q-175 0 -285.5 149t-110.5 384zM289 498q0 -192 71 -321.5 t175 -129.5q91 0 141.5 81.5t50.5 229.5q0 186 -62 292t-171 106q-50 0 -94.5 -21.5t-98.5 -70.5q-12 -103 -12 -166z" />
<glyph unicode="7" d="M90 1053l129 313h684l-432 -1403l-109 35l371 1208h-360q-95 0 -148 -37q-23 -17 -42.5 -47.5t-47.5 -93.5z" />
<glyph unicode="8" d="M141 301q0 101 64 191.5t203 185.5q-118 92 -180 190.5t-62 192.5q0 137 104 234.5t250 97.5q141 0 241.5 -96t100.5 -230q0 -62 -22 -113q-23 -55 -58 -91t-120 -93q-4 -2 -20.5 -13.5t-29.5 -19.5q132 -92 203.5 -204.5t71.5 -227.5q0 -139 -106.5 -235.5t-260.5 -96.5 q-160 0 -269.5 95t-109.5 233zM305 313q0 -114 63.5 -190t157.5 -76q89 0 146 59.5t57 151.5q0 63 -33 127q-29 51 -73 98q-55 60 -156 146q-162 -149 -162 -316zM322 1112q0 -146 231 -328q53 42 77.5 69t45.5 65q39 70 39 151q0 109 -57 178.5t-146 69.5q-80 0 -135 -59.5 t-55 -145.5z" />
<glyph unicode="9" d="M121 915q0 209 114.5 343.5t292.5 134.5q177 0 287.5 -148t110.5 -383q0 -177 -63.5 -342.5t-169.5 -287.5t-251 -196.5t-301 -78.5v51q92 12 180 53.5t154 104.5q72 67 130.5 181.5t92.5 252.5q-135 -82 -247 -82q-145 0 -237.5 112t-92.5 285zM299 1008 q0 -185 62 -290.5t171 -105.5q49 0 93.5 21.5t97.5 71.5q14 115 14 163q0 192 -70.5 320.5t-174.5 128.5q-91 0 -142 -81t-51 -228z" />
<glyph unicode=":" horiz-adv-x="565" d="M180 96q0 48 34 82.5t83 34.5t83 -34.5t34 -84.5q0 -47 -34 -82t-81 -35q-49 0 -84 34.5t-35 84.5zM180 831q0 49 33.5 83t81.5 34q50 0 84.5 -34t34.5 -83q0 -47 -35 -81.5t-82 -34.5q-48 0 -82.5 33.5t-34.5 82.5z" />
<glyph unicode=";" horiz-adv-x="565" d="M168 84q0 47 29 76.5t75 29.5q77 0 128 -61t51 -154q0 -116 -76 -204q-33 -37 -68 -60q-76 -57 -100 -57q-9 0 -16 6.5t-7 15.5q0 11 13 21l12 8q60 44 92 84q61 77 61 154q0 59 -30 59q-8 0 -29 -6l-14 -4q-15 -6 -31 -6q-38 0 -64 28t-26 70zM176 831q0 49 33.5 83 t81.5 34q50 0 84.5 -34t34.5 -83q0 -47 -35 -81.5t-82 -34.5q-50 0 -83.5 33.5t-33.5 82.5z" />
<glyph unicode="&#x3c;" d="M68 614v125l888 412v-143l-735 -332l733 -334l2 -143z" />
<glyph unicode="=" d="M68 481v127h888v-127h-888zM68 793v127h888v-127h-888z" />
<glyph unicode="&#x3e;" d="M68 199v143l735 334l-733 334l-2 141l888 -414v-125z" />
<glyph unicode="?" horiz-adv-x="878" d="M131 1108q0 117 93.5 203t219.5 86q138 0 229 -92t91 -232q0 -73 -25 -137q-40 -102 -157 -238q-25 -25 -31 -34l-21 -29q-8 -8 -12 -14q-14 -21 -35 -56q-30 -62 -30 -164q0 -16 2 -30h-56q0 18 2 24q3 82 6 108t13 72q12 52 27.5 89t52.5 102l10 18q18 25 43 90 q39 88 39 179q0 125 -51.5 199.5t-139.5 74.5q-60 0 -104.5 -36t-44.5 -85q0 -32 29 -82l12 -16q22 -34 22 -68q0 -31 -22.5 -52t-54.5 -21q-47 0 -77 39t-30 102zM317 96q0 47 35 82t82 35q49 0 83 -34.5t34 -84.5q0 -47 -34 -82t-81 -35q-50 0 -84.5 34.5t-34.5 84.5z" />
<glyph unicode="@" horiz-adv-x="1501" d="M68 678q0 146 55 277t149.5 225t226.5 149t279 55q183 0 331 -78.5t232 -217t84 -310.5q0 -126 -46 -237.5t-124 -178.5t-165 -67q-62 0 -103 37t-45 100q-46 -70 -112 -107.5t-144 -37.5q-125 0 -206 92.5t-81 236.5q0 172 105 294t254 122q167 0 227 -160l25 134h104 l-84 -433q-12 -58 -12 -94q0 -44 21.5 -70t56.5 -26q59 0 113.5 55.5t87 146.5t32.5 191q0 224 -154.5 368t-394.5 144q-127 0 -240 -47.5t-194 -129t-128.5 -195t-47.5 -240.5q0 -123 43.5 -234t124.5 -194q169 -178 459 -178q104 0 217 22q66 13 106.5 27.5t108.5 46.5 l28 -94q-211 -99 -460 -99q-210 0 -376.5 90t-259.5 251t-93 364zM516 621q0 -102 53.5 -166t139.5 -64q101 0 169 95.5t68 236.5q0 92 -49 146.5t-129 54.5q-103 0 -177.5 -89.5t-74.5 -213.5z" />
<glyph unicode="A" horiz-adv-x="1470" d="M10 0v53q60 2 103 17q82 30 149 188l479 1151l498 -1165l5.5 -11t9 -18.5t10.5 -21.5q20 -44 41 -72q25 -36 59.5 -51.5t95.5 -16.5v-53h-563v53h18q78 5 105 20t27 56q0 22 -11 51l-12 29l-100 237h-488l-88 -213q-31 -70 -31 -106q0 -30 20 -48.5t56 -21.5l58 -2l14 -2 v-53h-455zM467 518h426l-213 514z" />
<glyph unicode="B" horiz-adv-x="1312" d="M78 0v53h18q48 0 90 17q36 14 62 47q17 25 22.5 57.5t5.5 112.5v792q0 78 -5.5 110t-22.5 60q-43 62 -152 62l-18 2v53h522q146 0 231.5 -20t151.5 -70q137 -103 137 -275q0 -114 -78 -191.5t-215 -100.5q75 -15 115 -29q120 -41 184 -120.5t64 -188.5 q0 -172 -129 -271.5t-352 -99.5h-631zM481 104q0 -18 25 -20q55 -8 110 -8q157 0 248.5 81.5t91.5 219.5q0 137 -92.5 217t-251.5 80h-32l-64 -4q-24 -2 -29.5 -6t-5.5 -21v-539zM481 774q0 -12 2.5 -15.5t14.5 -4.5q50 -4 75 -4q157 0 245.5 73.5t88.5 202.5 q0 167 -143 240q-65 32 -184 32h-21l-49 -2q-20 -1 -24.5 -4.5t-4.5 -17.5v-500z" />
<glyph unicode="C" horiz-adv-x="1351" d="M102 662q0 203 85.5 369t235.5 260.5t333 94.5q134 0 288 -63q9 -6 15 -6l14 -6q24 -8 37 -8q25 0 38 14.5t19 48.5l2 16h52q-2 -31 -2 -65q0 -216 32 -383l-53 -10q-41 186 -142 283.5t-253 97.5q-134 0 -241 -78t-166.5 -217t-59.5 -314q0 -278 129.5 -446t343.5 -168 q277 0 420 276l55 -34q-85 -168 -222 -256t-314 -88q-178 0 -326.5 89.5t-234 246.5t-85.5 346z" />
<glyph unicode="D" horiz-adv-x="1550" d="M78 0v53h18q48 0 90 17q36 14 62 47q17 25 22.5 57.5t5.5 112.5v792q0 78 -5.5 110t-22.5 60q-43 62 -152 62l-18 2v53h504q32 0 65 -2q167 -1 242.5 -10t163.5 -37q187 -61 295 -225t108 -387q0 -353 -237 -537q-145 -115 -340 -152q-94 -16 -234 -16h-567zM481 111 q91 -29 201 -29q238 0 389.5 170t151.5 438q0 275 -147.5 435.5t-401.5 160.5q-111 0 -193 -26v-1149z" />
<glyph unicode="E" horiz-adv-x="1302" d="M80 0v53h18q44 0 90 17q38 15 60 47q18 24 23 56t5 114v792q0 80 -5 111.5t-23 58.5q-40 62 -150 62l-18 2v53h1032l23 -332h-54q-17 132 -83 189t-201 57h-316v-518l271 2q103 0 149 22q72 40 72 179h51v-484h-51q-3 51 -6 69t-15 46q-15 37 -49 55q-24 14 -53 19t-98 6 l-271 4v-494q0 -66 15.5 -84t72.5 -18h271q39 0 51 2q122 3 207 82q60 58 110 197l49 -15l-106 -350h-1071z" />
<glyph unicode="F" horiz-adv-x="1247" d="M78 0v53h18q48 0 90 17q36 14 62 47q17 25 22.5 57.5t5.5 112.5v792q0 78 -5.5 110t-22.5 60q-43 62 -152 62l-18 2v53h1098l24 -328h-53q-20 122 -76 181q-34 35 -88.5 48t-169.5 13h-332v-518l277 4q78 1 104 7t51 26q54 45 54 155v11h51v-484h-51q-4 72 -19 113 q-11 31 -45 55q-31 22 -72 25q-36 0 -73 2l-277 4v-393q0 -80 5 -111.5t24 -58.5q39 -61 149 -64h19v-53h-600z" />
<glyph unicode="G" horiz-adv-x="1591" d="M96 682q0 268 148 451q60 74 149 134.5t178 88.5q99 30 228 30q153 0 331 -67l9 -2l16 -6q12 -6 29 -6q30 0 46.5 18.5t24.5 58.5h52q-4 -33 -4 -77q0 -198 32 -361l-51 -6q-34 168 -153 267.5t-287 99.5q-222 0 -369 -172.5t-147 -432.5q0 -180 70 -326.5t193 -229.5 t273 -83q56 0 101 13t102 45q36 19 49.5 34.5t13.5 39.5v264q0 80 -5 111.5t-23 58.5q-39 61 -150 61l-20 2v53h606v-53l-25 -2q-47 0 -90 -16q-35 -11 -59 -45q-18 -26 -23.5 -57.5t-5.5 -112.5v-338q-137 -73 -198 -92q-58 -21 -146.5 -34t-165.5 -13q-214 0 -380 88.5 t-257.5 248t-91.5 365.5z" />
<glyph unicode="H" horiz-adv-x="1579" d="M76 0v53h20q44 0 90 17q38 15 60 47q17 25 22.5 57.5t5.5 112.5v792q0 80 -5 111.5t-23 58.5q-40 62 -150 62l-20 2v53h602v-53l-21 -2q-44 0 -90 -17q-35 -11 -59 -45q-18 -27 -23.5 -59.5t-5.5 -110.5v-346h617v346q0 77 -5.5 109.5t-23.5 60.5q-43 62 -152 62l-18 2 v53h600v-53l-18 -2q-44 0 -90 -17q-37 -12 -60 -45q-18 -26 -23.5 -57.5t-5.5 -112.5v-792q0 -80 5 -111.5t24 -58.5q39 -61 150 -64h18v-53h-600v53h18q49 0 91 17q34 14 61 47q17 25 23 58t6 112v372h-617v-372q0 -80 5 -111.5t24 -58.5q39 -61 149 -64h21v-53h-602z" />
<glyph unicode="I" horiz-adv-x="757" d="M76 0v53h20q44 0 90 17q38 15 60 47q17 25 22.5 57.5t5.5 112.5v792q0 80 -5 111.5t-23 58.5q-40 62 -150 62l-20 2v53h602v-53l-21 -2q-44 0 -90 -17q-35 -11 -59 -45q-18 -26 -23.5 -57.5t-5.5 -112.5v-792q0 -80 5 -111.5t24 -58.5q39 -61 149 -64h21v-53h-602z" />
<glyph unicode="J" horiz-adv-x="864" d="M37 135q0 43 31 72t77 29q80 0 119 -91l6 -16l9 -16q14 -41 53 -41q67 0 67 98q0 26 -4 92q-4 40 -4 43v774q0 79 -5.5 111t-23.5 59q-40 62 -149 62l-18 2v53h600v-53l-19 -2q-48 0 -90 -17q-34 -11 -61 -45q-18 -27 -23.5 -59.5t-5.5 -110.5v-663v-54 q0 -177 -90.5 -281t-245.5 -104q-95 0 -159 45.5t-64 112.5z" />
<glyph unicode="K" horiz-adv-x="1544" d="M78 0v53h18q44 0 90 17q38 15 60 47q18 24 23 56t5 114v792q0 80 -5 111.5t-23 58.5q-40 62 -150 62l-18 2v53h600v-53l-19 -2q-47 0 -90 -17q-35 -11 -59 -45q-19 -27 -25 -59t-6 -111v-360q17 2 31 12q60 44 182 166q109 114 174 193q97 110 97 155q0 63 -91 66h-28v55 h502v-53q-50 -2 -105 -21q-56 -23 -96 -55q-25 -20 -107 -102q-53 -53 -73 -76q-4 -4 -8 -7.5t-7 -6.5l-2 -3l-274 -280l518 -563q75 -83 145.5 -115.5t175.5 -32.5h21v-51h-670v51h8q63 0 91 11t28 36t-20 45l-436 480q-29 32 -56 34v-370q0 -78 6 -110t25 -60 q39 -61 149 -64h19v-53h-600z" />
<glyph unicode="L" horiz-adv-x="1243" d="M80 0v53h18q44 0 90 17q38 15 60 47q18 24 23 56t5 114v792q0 80 -5 111.5t-23 58.5q-40 62 -150 62l-18 2v53h600v-53l-18 -2q-48 0 -91 -17q-34 -11 -61 -45q-18 -27 -23.5 -59.5t-5.5 -110.5v-831q0 -66 13 -103q9 -26 29.5 -35t78.5 -10h43h100q106 0 166 9.5 t105 35.5q112 59 166 240h55l-121 -385h-1036z" />
<glyph unicode="M" horiz-adv-x="1878" d="M72 0v53h18q44 0 90 17q38 15 60 47q18 24 23 56t5 114v792q0 80 -5 111.5t-23 58.5q-40 62 -150 62l-18 2v53h391l475 -1001l475 1001h383v-53l-18 -2q-44 0 -90 -17q-37 -12 -60 -45q-18 -26 -23.5 -57.5t-5.5 -112.5v-792q0 -80 5 -111.5t24 -58.5q39 -61 150 -64h18 v-53h-600v53h18q48 0 91 17q34 14 61 47q17 25 23 58t6 112v815l-518 -1094l-519 1086v-807q0 -80 5 -111.5t24 -58.5q39 -61 150 -64h18v-53h-483z" />
<glyph unicode="N" horiz-adv-x="1558" d="M10 1313v53h400l794 -936v649q0 80 -5 111.5t-23 58.5q-40 62 -150 62l-20 2v53h485v-53l-18 -2q-49 0 -91 -17q-34 -11 -61 -45q-18 -27 -23.5 -59.5t-5.5 -110.5v-1095l-930 1106v-803q0 -80 5 -111.5t24 -58.5q39 -61 150 -64h18v-53h-483v53h18q44 0 90 17 q38 15 60 47q18 24 23 56t5 114v909q-38 45 -82 74q-42 25 -78.5 34t-101.5 9z" />
<glyph unicode="O" horiz-adv-x="1488" d="M104 674q0 142 41 270q62 192 234.5 317t376.5 125q177 0 320.5 -89.5t225.5 -247t82 -351.5q0 -329 -192 -524q-92 -94 -210.5 -144t-246.5 -50q-182 0 -326 88.5t-224.5 246.5t-80.5 359zM338 680q0 -280 111 -449.5t294 -169.5q186 0 298 169t112 450 q0 286 -107.5 455.5t-289.5 169.5q-189 0 -303.5 -171.5t-114.5 -453.5z" />
<glyph unicode="P" horiz-adv-x="1169" d="M80 0v53h18q44 0 90 17q38 15 60 47q18 24 23 56t5 114v792q0 80 -5 111.5t-23 58.5q-40 62 -150 62l-18 2v53h508q120 0 215 -12q144 -22 231.5 -120.5t87.5 -238.5q0 -172 -107 -274.5t-286 -102.5q-91 0 -248 39v-370q0 -78 5.5 -110t23.5 -60q42 -61 152 -64h18v-53 h-600zM481 756q0 -26 44.5 -43t117.5 -17q110 0 179 82t69 213q0 137 -76.5 216t-208.5 79q-32 0 -90 -10q-21 -4 -28 -11t-7 -22v-487z" />
<glyph unicode="Q" horiz-adv-x="1492" d="M104 672q0 300 164 487q92 106 222.5 166.5t265.5 60.5q177 0 321.5 -89.5t226.5 -246.5t82 -350q0 -109 -27 -221.5t-71 -187.5q-54 -86 -135 -156q-65 -54 -112 -80t-136 -55q71 -134 176 -211q61 -43 137.5 -71t143.5 -29v-47q-15 0 -37 1t-27 1q-82 8 -170 30 q-95 21 -153 43q-94 33 -168 82q-62 38 -111 78t-133 123q-84 34 -122.5 53.5t-78.5 48.5q-123 89 -190.5 238.5t-67.5 331.5zM336 678q0 -277 114.5 -450t297.5 -173q186 0 296.5 169.5t110.5 455.5v22q-6 280 -111.5 441.5t-285.5 161.5q-100 0 -185.5 -52t-132.5 -141 q-49 -90 -76.5 -205t-27.5 -229z" />
<glyph unicode="R" horiz-adv-x="1454" d="M76 0v53h20q44 0 90 17q38 15 60 47q17 25 22.5 57.5t5.5 112.5v792q0 80 -5 111.5t-23 58.5q-40 62 -150 62l-20 2v53h567q175 0 285 -43q95 -35 150 -118.5t55 -192.5q0 -126 -80.5 -216.5t-223.5 -127.5l301 -412q35 -54 87 -106q28 -35 75 -64q32 -18 56 -24t82 -9 h14v-53h-377l-463 631h-63h-62v-344q0 -80 5 -111.5t24 -58.5q39 -61 149 -64h21v-53h-602zM479 733q0 -17 14.5 -22.5t61.5 -5.5q157 0 251.5 81t94.5 215q0 129 -76.5 209t-199.5 80q-43 0 -105 -12q-27 -6 -34 -12.5t-7 -26.5v-506z" />
<glyph unicode="S" horiz-adv-x="1144" d="M154 -12l6 446l53 -2q6 -161 98.5 -257.5t243.5 -96.5q112 0 187 68t75 169q0 73 -47 129q-22 30 -47.5 51t-79.5 52l-240 147q-79 48 -120.5 87t-69.5 91q-35 68 -35 148q0 155 110.5 260.5t274.5 105.5q74 0 142 -20l24 -8l23 -4q1 -1 28 -8q27 -9 49 -9q58 0 64 64 l53 -2l-2 -449h-53q-9 156 -90 249t-207 93q-95 0 -161 -59.5t-66 -147.5q0 -118 151 -206l187 -109q103 -61 153 -98q74 -54 116 -136t42 -174q0 -166 -119.5 -274t-302.5 -108q-57 0 -97.5 8t-127.5 37q-6 1 -15 4l-12 4l-20 6q-33 8 -43 8q-31 0 -47 -13t-25 -46h-53z " />
<glyph unicode="T" horiz-adv-x="1245" d="M39 1044l22 322h1125l22 -319h-51q-15 131 -72.5 178t-203.5 47h-154v-985q0 -80 5 -111.5t24 -58.5q39 -61 149 -64h39v-53h-639v53h39q44 0 90 17q39 17 60 47q17 25 22.5 57.5t5.5 112.5v985h-135q-157 0 -221 -49.5t-76 -178.5h-51z" />
<glyph unicode="U" horiz-adv-x="1542" d="M63 1313v53h601v-53l-19 -2q-47 0 -90 -17q-34 -11 -61 -45q-18 -27 -23.5 -59.5t-5.5 -110.5v-567v-57q0 -90 12.5 -143.5t44.5 -100.5q46 -69 127.5 -110.5t173.5 -41.5q126 0 232 72q75 52 106 127t31 203v59v559q0 79 -5.5 111t-23.5 59q-40 62 -149 62l-21 2v53h496 v-53l-19 -2q-44 0 -90 -17q-35 -11 -59 -45q-18 -26 -23.5 -57.5t-5.5 -112.5v-567q0 -133 -22.5 -218t-73.5 -147q-64 -78 -175 -122.5t-239 -44.5q-123 0 -230 39.5t-179 111.5q-52 56 -78 111q-33 78 -33 153q-2 12 -2 117v567q0 79 -5.5 111t-23.5 59q-40 62 -149 62z " />
<glyph unicode="V" horiz-adv-x="1415" d="M6 1313v53h598v-53l-20 -2q-87 -3 -122.5 -25.5t-35.5 -73.5q0 -46 18 -86l328 -776l295 709q4 12 12.5 31.5t10.5 27.5q20 55 20 99q0 49 -33.5 71t-113.5 25v53h446v-53h-6q-79 0 -129 -47q-36 -36 -88 -152l-481 -1149l-453 1092l-21 51q-33 81 -48 107t-42 51 q-24 21 -58.5 34t-66.5 13h-10z" />
<glyph unicode="W" horiz-adv-x="1943" d="M10 1313v53h557v-53q-10 -2 -24 -2q-68 -5 -94.5 -22t-26.5 -58q0 -17 12 -55l268 -758l211 581l-59 162q-29 80 -49 105q-29 42 -127 45l-21 2v53h551v-53q-2 0 -5.5 -1t-4.5 -1q-15 0 -34 -1t-23 -1q-35 -3 -54.5 -22.5t-19.5 -51.5q0 -31 23 -96l262 -721l250 710 q22 68 22 99q0 43 -29.5 65.5t-85.5 22.5q-3 0 -10.5 -1t-15.5 -1v53h452v-53q-57 -4 -89.5 -12.5t-60 -31.5t-45.5 -57.5t-40 -97.5l-410 -1163l-323 899l-326 -891l-414 1169q-40 111 -82.5 147.5t-134.5 37.5z" />
<glyph unicode="X" horiz-adv-x="1470" d="M35 0v53q92 1 142.5 27.5t109.5 101.5l26 35l332 434l-276 434q-50 79 -77 115t-56 60q-32 28 -70 39t-107 14v53h627v-53q-10 -2 -24 -2q-67 -1 -96 -17.5t-29 -52.5q0 -26 22 -63l14 -23l207 -326l234 301q61 81 61 125q0 28 -25.5 44t-68.5 16q-19 0 -37 -2v53h479 v-53h-34q-44 0 -86 -10q-38 -10 -68 -38.5t-82 -99.5q-22 -28 -25 -32l-294 -388l292 -462q65 -100 121 -156q38 -38 78.5 -53.5t110.5 -20.5v-53h-631v53h22q70 3 99.5 19.5t29.5 52.5t-32 88l-226 356l-260 -340q-57 -75 -57 -108q0 -34 24 -50.5t78 -17.5h27v-53h-475z " />
<glyph unicode="Y" horiz-adv-x="1429" d="M10 1313v53h606v-53h-26q-65 -1 -91 -17t-26 -53q0 -29 16 -55q1 -1 3.5 -5t8 -12.5t11.5 -17.5l274 -444l275 452q33 53 33 88q0 34 -26 49t-87 15h-20v53h458v-53q-102 -3 -152 -36.5t-116 -141.5l-326 -543v-305q0 -80 5 -111.5t24 -58.5q39 -61 150 -64h18v-53h-600 v53h18q48 0 90 17q36 14 62 47q17 25 23 58t6 112v303l-359 586q-48 76 -76 98q-51 39 -161 39h-15z" />
<glyph unicode="Z" horiz-adv-x="1343" d="M68 0l856 1280h-361q-76 0 -117 -6t-77 -23q-61 -26 -86.5 -75t-40.5 -168h-52l35 358h1006l-854 -1282h450q2 0 16 1t27 1q81 4 113 11t66 26q113 61 155 223h53l-75 -346h-1114z" />
<glyph unicode="[" horiz-adv-x="567" d="M164 -328v1694h373v-82h-213v-1532h215v-80h-375z" />
<glyph unicode="\" d="M53 1536h140l737 -1706h-142z" />
<glyph unicode="]" horiz-adv-x="567" d="M29 -248h217v1532h-213v82h373v-1694h-377v80z" />
<glyph unicode="^" d="M53 750l365 618h188l365 -618h-158l-303 505l-301 -505h-156z" />
<glyph unicode="_" d="M0 -139h1024v-129h-1024v129z" />
<glyph unicode="`" d="M229 1409h222l127 -336h-68z" />
<glyph unicode="a" horiz-adv-x="964" d="M96 195q0 112 86.5 195t274.5 151l123 43l20 8v129q0 83 -41 128.5t-113 45.5q-62 0 -101.5 -36t-39.5 -91q0 -19 2 -25l4 -12l2 -10t1.5 -7t0.5 -3q0 -2 1 -8t1 -9q0 -38 -24.5 -64t-59.5 -26q-40 0 -65 26.5t-25 69.5q0 104 96 180t228 76q131 0 214 -66.5t83 -172.5 v-516q0 -61 10.5 -83t42.5 -22q43 0 92 60l37 -35l-10 -15q-58 -69 -100 -98q-56 -39 -105 -39t-82 29q-26 22 -35 45t-14 78q-139 -154 -272 -154q-99 0 -165.5 65.5t-66.5 162.5zM258 244q0 -64 47 -109t113 -45q62 0 129 53q53 39 53 82v295q-119 -31 -223 -94 q-119 -72 -119 -182z" />
<glyph unicode="b" horiz-adv-x="1077" d="M47 1219v51q105 21 291 125l20 10v-608q123 159 271 159t250 -133.5t102 -326.5q0 -226 -125 -374.5t-315 -148.5q-83 0 -175 28t-171 77v1044q0 59 -16.5 84t-55.5 25q-23 0 -47 -6q-4 -1 -29 -6zM358 233q0 -53 2 -65q11 -50 64 -85.5t117 -35.5q120 0 193 106.5 t73 278.5q0 158 -76 265.5t-188 107.5q-62 0 -123 -43q-62 -47 -62 -92v-437z" />
<glyph unicode="c" horiz-adv-x="913" d="M94 453q0 223 121 363t313 140q120 0 205.5 -59.5t85.5 -144.5q0 -43 -25 -72t-63 -29q-35 0 -63 23t-33 55v14l-2 15q-9 60 -47 91.5t-101 31.5q-100 0 -164.5 -96.5t-64.5 -247.5q0 -169 84.5 -287.5t204.5 -118.5q89 0 161 62t109 169l45 -14l-2 -10 q-111 -365 -393 -365q-164 0 -267.5 133.5t-103.5 346.5z" />
<glyph unicode="d" horiz-adv-x="1099" d="M100 455q0 224 109.5 362.5t284.5 138.5q134 0 231 -100v266q0 60 -16 84.5t-54 24.5q-25 0 -49 -6q-16 -4 -26 -6v51q13 3 14 4q23 5 82 26q64 25 112 52l80 43l21 10v-1141q0 -56 4 -79.5t18 -43.5q23 -26 60 -26q28 0 67 20v-53q-49 -16 -153 -59q-90 -35 -160 -68 v137q-116 -119 -256 -119q-169 0 -269 130t-100 352zM268 485q0 -180 79.5 -290.5t209.5 -110.5q73 0 133 57q35 35 35 64v444q0 104 -55 168t-146 64q-115 0 -185.5 -108.5t-70.5 -287.5z" />
<glyph unicode="e" horiz-adv-x="946" d="M94 461q0 218 111.5 356.5t288.5 138.5q151 0 241 -101.5t101 -281.5l2 -18h-609v-20q0 -177 86.5 -287.5t223.5 -110.5q106 0 179 59t101 166h55q-18 -90 -36 -141q-43 -113 -135.5 -180.5t-204.5 -67.5q-180 0 -292 135t-112 353zM233 629h412q-3 113 -50.5 172 t-135.5 59q-92 0 -149.5 -58.5t-76.5 -172.5z" />
<glyph unicode="f" horiz-adv-x="641" d="M49 0v47l14 2q86 6 115 33t29 102v676h-139v68h139v65q0 195 92 306.5t254 111.5q97 0 170.5 -48.5t73.5 -111.5q0 -37 -24 -62.5t-58 -25.5q-59 0 -107 74l-10 20q-1 0 -1.5 1.5t-1.5 3.5t-3 4q-28 69 -98 69q-34 0 -62.5 -20.5t-40.5 -54.5q-11 -26 -14 -66 q-6 -62 -6 -147v-119h176v-68h-176v-676q0 -75 27.5 -102t113.5 -33l14 -2v-47h-477z" />
<glyph unicode="g" horiz-adv-x="956" d="M43 -154q0 34 33.5 82.5t109.5 126.5l21 23q-92 31 -92 110q0 38 29 79.5t110 119.5q-156 89 -156 248q0 133 97.5 229.5t232.5 96.5q46 0 84.5 -12t103.5 -46h254v-110h-147q39 -74 39 -152q0 -130 -92.5 -213.5t-237.5 -83.5q-40 0 -108 16l-13 -12q-33 -39 -43 -56 t-10 -34q0 -26 25 -37.5t82 -13.5h36l224 -4h45q51 -3 98 -19q54 -20 88.5 -73t34.5 -119q0 -89 -66 -166.5t-179 -122.5t-245 -45q-140 0 -249 57.5t-109 130.5zM195 -82q0 -63 87 -100t230 -37q128 0 212.5 50t84.5 126q0 55 -37 78q-19 9 -39 12t-84 6l-176 6h-22 q-95 0 -183 9q-42 -55 -57.5 -86.5t-15.5 -63.5zM274 709q0 -124 51.5 -211.5t125.5 -87.5q63 0 101 42.5t42 118.5v19q0 127 -51 217t-123 90q-69 0 -107.5 -49t-38.5 -139z" />
<glyph unicode="h" horiz-adv-x="1126" d="M49 0v47l14 2q86 6 115 33t29 102v938q0 59 -16.5 84t-55.5 25q-22 0 -49 -6q-12 -3 -27 -6v51q55 12 150 53.5t162 81.5v-643q76 103 148 148.5t157 45.5q117 0 187.5 -73t70.5 -195v-504q0 -75 28.5 -102t114.5 -33l15 -2v-47h-480v47l15 2q86 6 114.5 33t28.5 102v457 q0 172 -166 172q-66 0 -121.5 -29t-111.5 -92v-508q0 -75 27.5 -102t113.5 -33l14 -2v-47h-477z" />
<glyph unicode="i" horiz-adv-x="571" d="M51 0v47l15 2q86 6 113.5 33t27.5 102v502q0 56 -15.5 81.5t-50.5 25.5q-19 0 -69 -17v49q54 18 106 45q16 7 43.5 20.5t38.5 18.5q66 32 111 66v-791q0 -75 28.5 -102t114.5 -33l14 -2v-47h-477zM168 1272q0 46 32.5 78t78.5 32t79 -33.5t33 -80.5q0 -44 -33 -75.5 t-79 -31.5t-78.5 32.5t-32.5 78.5z" />
<glyph unicode="j" horiz-adv-x="552" d="M-117 -229q0 34 22.5 58t53.5 24q19 0 40 -10.5t30 -24.5l8 -13q25 -35 40.5 -46t43.5 -11q47 0 72.5 35.5t25.5 101.5v801q0 56 -16 81.5t-51 25.5q-18 0 -68 -17v49q68 23 160.5 69.5t138.5 80.5v-922q0 -175 -92.5 -287t-237.5 -112q-72 0 -121 33t-49 84zM174 1272 q0 46 32.5 78t78.5 32t79 -33.5t33 -80.5q0 -44 -32 -75.5t-78 -31.5q-47 0 -80 32.5t-33 78.5z" />
<glyph unicode="k" horiz-adv-x="1015" d="M47 0v47l14 2q86 6 114 33t28 102v938q0 60 -16 84.5t-54 24.5q-22 0 -49 -6q-12 -3 -27 -6v51q53 12 97 30q144 60 213 105v-885l241 258q54 60 54 80t-54 23h-18v47h358v-47q-60 -6 -95 -19t-73 -43q-33 -23 -67 -57q-35 -30 -58 -53l-43 -43l-96 -101l260 -354 q52 -74 92 -113q27 -24 52.5 -34.5t70.5 -16.5v-47h-401v47h28q50 0 50 29q0 22 -47 84l-13 18l-241 328v-322q0 -75 28.5 -102t114.5 -33l14 -2v-47h-477z" />
<glyph unicode="l" horiz-adv-x="571" d="M51 0v47l15 2q86 6 114.5 33t28.5 102v938q0 60 -16 84.5t-56 24.5q-27 0 -74 -12v51q59 13 153 54.5t157 80.5v-1221q0 -75 28.5 -102t114.5 -33l14 -2v-47h-479z" />
<glyph unicode="m" horiz-adv-x="1699" d="M51 0v47l15 2q86 6 113.5 33t27.5 102v502q0 60 -16 85.5t-54 25.5q-22 0 -49 -6q-12 -3 -27 -9v52q41 7 97 30q81 32 194 94l19 11v-211q54 69 75 90q105 108 240 108q106 0 172 -63q28 -26 41.5 -52.5t28.5 -82.5l12 16l33 37q56 66 131.5 105.5t148.5 39.5 q113 0 183.5 -75t70.5 -195v-502q0 -75 29 -102t115 -33l14 -2v-47h-479v47l14 2q86 6 114.5 33t28.5 102v453q0 182 -169 182q-72 0 -135.5 -36t-100.5 -97v-502q0 -75 28.5 -102t114.5 -33l15 -2v-47h-480v47l15 2q86 6 114.5 33t28.5 102v445q0 98 -40 143t-128 45 q-141 0 -235 -135v-498q0 -75 28.5 -102t114.5 -33l14 -2v-47h-477z" />
<glyph unicode="n" horiz-adv-x="1130" d="M49 0v47l14 2q86 6 115 33t29 102v502q0 60 -16.5 85.5t-53.5 25.5q-25 0 -49 -6q-17 -4 -29 -9v52q27 5 97 30q107 43 215 105v-213q72 105 147 153.5t166 48.5q123 0 189.5 -80.5t66.5 -230.5v-463q0 -75 27.5 -102t113.5 -33l15 -2v-47h-478v47l15 2q86 6 114.5 33 t28.5 102v465q0 81 -44 125.5t-124 44.5q-77 0 -133.5 -34t-103.5 -109v-492q0 -75 27.5 -102t113.5 -33l14 -2v-47h-477z" />
<glyph unicode="o" horiz-adv-x="1062" d="M96 449q0 216 130.5 361.5t324.5 145.5q180 0 299 -137t119 -346q0 -211 -130 -355.5t-319 -144.5q-181 0 -302.5 136.5t-121.5 339.5zM268 487q0 -191 77.5 -315.5t195.5 -124.5q113 0 183.5 110t70.5 287q0 4 -1 12.5t-1 12.5q-7 184 -83 298t-192 114 q-109 0 -179.5 -110.5t-70.5 -283.5z" />
<glyph unicode="p" horiz-adv-x="1064" d="M47 -281l14 2q86 6 115 33.5t29 102.5v858q0 63 -19.5 92t-62.5 29q-11 0 -51 -9v50q175 39 297 92v-158q56 48 98 80q86 65 178 65q138 0 232 -131t94 -323q0 -220 -122.5 -367t-305.5 -147q-90 0 -174 47v-178q0 -75 28.5 -102.5t114.5 -33.5l14 -2v-47h-479v47z M369 205q0 -33 22 -60q63 -84 156 -84q118 0 185 98t67 269q0 174 -71.5 282.5t-186.5 108.5q-40 0 -78 -18t-94 -62v-534z" />
<glyph unicode="q" horiz-adv-x="1071" d="M92 440q0 138 61.5 257t165.5 189t224 70q51 0 92 -15.5t110 -59.5q29 8 44 15t38 26q19 16 24.5 21.5t14.5 15.5t19 24v-1126q0 -75 28.5 -102.5t114.5 -33.5l14 -2v-47h-479v47l15 2q86 6 114.5 33.5t28.5 102.5v258q-59 -66 -135 -105t-148 -39q-148 0 -247 134.5 t-99 334.5zM262 498q0 -177 75 -281t202 -104q50 0 102 22q40 21 70 51q10 10 10 15v512q0 71 -55 119.5t-136 48.5q-125 0 -196.5 -102.5t-71.5 -280.5z" />
<glyph unicode="r" horiz-adv-x="704" d="M47 0v47l14 2q86 6 115 33t29 102v502q0 60 -16 85.5t-54 25.5q-22 0 -49 -6q-12 -3 -27 -9v52q41 9 97 30q56 24 114 51q55 25 97 54v-193q45 80 88 123q59 59 127 59q51 0 87 -32.5t36 -79.5q0 -40 -26 -69t-63 -29q-43 0 -63 30l-8 8l-10 15q-13 16 -33 16 q-54 0 -93.5 -69t-39.5 -164v-400q0 -75 28.5 -102t114.5 -33l14 -2v-47h-479z" />
<glyph unicode="s" horiz-adv-x="798" d="M115 -18v313h49q20 -119 81.5 -183.5t153.5 -64.5q63 0 108.5 43.5t45.5 104.5q0 80 -100 141l-144 88q-107 66 -150.5 127t-43.5 145q0 109 77 184.5t187 75.5q49 0 137 -24l27 -8q20 -4 26 -4q29 0 41 36h49l7 -321h-52q-15 114 -77.5 180t-153.5 66q-58 0 -97.5 -36.5 t-39.5 -90.5q0 -40 23.5 -71t80.5 -65l39 -22l166 -102q156 -93 156 -244q0 -116 -83.5 -197.5t-203.5 -81.5q-49 0 -145 27l-17 4l-24 8q-10 4 -27 4q-32 0 -47 -32h-49z" />
<glyph unicode="t" horiz-adv-x="634" d="M57 860v68q94 19 160.5 100.5t83.5 198.5h49v-299h195v-68h-195v-596q0 -86 23.5 -123t77.5 -37q37 0 65 19t59 65l41 -28q-49 -86 -117.5 -136.5t-136.5 -50.5q-44 0 -83 19t-62 53q-20 29 -25.5 57.5t-5.5 96.5v661h-129z" />
<glyph unicode="u" horiz-adv-x="1138" d="M41 881v47h321v-613q0 -106 39 -155t125 -49q141 0 242 131v501q0 75 -28.5 102.5t-114.5 33.5l-15 2v47h322v-678q0 -77 19 -109t65 -32q14 0 59 10v-49q-46 -8 -131 -39q-85 -33 -92 -35q-50 -21 -84 -43v213q-85 -106 -154.5 -150.5t-152.5 -44.5q-121 0 -191.5 75 t-70.5 204v493q0 75 -29 102.5t-115 33.5z" />
<glyph unicode="v" horiz-adv-x="921" d="M10 881v47h416v-47h-27q-61 -1 -84.5 -16t-23.5 -50q0 -21 12 -59l205 -508l194 514q13 35 13 57q0 34 -25.5 48t-87.5 14v47h309v-47q-44 -7 -65 -27.5t-43 -75.5l-314 -796h-45l-303 774q-26 68 -52.5 93t-78.5 32z" />
<glyph unicode="w" horiz-adv-x="1372" d="M10 881v47h400v-47q-3 0 -8 -1t-7 -1q-34 -3 -49 -9q-22 -6 -35.5 -23.5t-13.5 -39.5q0 -11 8 -35l195 -512l164 434l-29 82q-22 61 -49.5 82t-89.5 23v47h403v-47q-55 -1 -77.5 -17t-22.5 -53q0 -19 8 -47l166 -488l186 490q10 20 10 47q0 38 -24.5 52.5t-93.5 15.5v47 h311v-47q-31 0 -49 -15q-21 -15 -33 -39q-1 -2 -9.5 -18t-13.5 -27q-3 -7 -8 -18.5t-6 -15.5l-295 -762h-45l-198 587l-226 -587h-47l-297 792q-16 48 -35 70q-30 33 -90 33z" />
<glyph unicode="x" horiz-adv-x="1038" d="M35 0v47q63 3 98 25.5t82 89.5l217 303l-205 315q-35 56 -75.5 78t-110.5 23v47h444v-47q-52 0 -73 -12t-21 -40q0 -15 19 -47l120 -182l136 193q16 22 16 36q0 26 -16.5 38t-53.5 14h-16v47h375v-47q-82 -3 -127 -23t-80 -70l-189 -262l197 -293q50 -78 90 -120 q32 -35 59 -48.5t76 -17.5v-47h-409v47q41 1 56 10t15 31q0 32 -24 70l-154 233l-164 -225q-28 -42 -28 -78q0 -19 12.5 -27.5t44.5 -9.5l43 -4h10v-47h-364z" />
<glyph unicode="y" horiz-adv-x="956" d="M18 881v47h416v-47q-58 -1 -81 -18.5t-23 -59.5q0 -25 12 -60l178 -503l129 329q2 8 10.5 28.5t12.5 31.5q30 83 37.5 111t7.5 57q0 43 -25 61t-88 21l-24 2v47h362v-47q-60 -3 -87.5 -34.5t-74.5 -152.5l-12 -26l-266 -670q-48 -125 -80 -178q-38 -69 -105 -111.5 t-135 -42.5q-53 0 -86 28.5t-33 74.5q0 41 29.5 66.5t75.5 25.5q29 0 70 -21l12 -6l18 -8q9 -6 21 -6q63 0 117 125l28 71l-266 736q-28 77 -58.5 103t-91.5 26z" />
<glyph unicode="z" horiz-adv-x="937" d="M76 0v31l532 823h-246q-67 0 -120 -29q-25 -17 -35 -51t-10 -102v-23h-50v279h684v-31l-532 -821h317q116 0 154 63q23 39 23 142h47v-281h-764z" />
<glyph unicode="{" d="M299 449v114q63 17 90 59.5t27 122.5v365q0 148 67.5 214.5t218.5 66.5q25 0 54 -2v-121q-118 -3 -157.5 -39t-39.5 -142v-350q0 -75 -18 -127q-10 -36 -33.5 -59.5t-73.5 -48.5q69 -38 97 -92t28 -150v-336q0 -112 39 -148t158 -38v-123h-51q-157 0 -223 69.5t-66 233.5 v338q0 88 -26.5 132t-90.5 61z" />
<glyph unicode="|" d="M440 -512v2048h144v-2048h-144z" />
<glyph unicode="}" d="M291 -262q117 3 155.5 38.5t38.5 141.5v348q0 70 19 129q12 37 34.5 60t71.5 49q-69 37 -97 90t-28 149v336q0 112 -38.5 149.5t-155.5 39.5v121q27 2 51 2q155 0 221 -70t66 -234v-339q0 -88 26 -131t90 -60v-115q-63 -17 -89.5 -59.5t-26.5 -124.5v-362 q0 -148 -68 -214.5t-219 -66.5h-51v123z" />
<glyph unicode="~" horiz-adv-x="1366" d="M190 1249q21 46 43 80q92 154 236 154q76 0 231 -70q71 -33 101 -45q47 -20 98 -20q58 0 99.5 30.5t88.5 108.5l89 -51q-40 -76 -70 -115q-43 -53 -102.5 -83t-120.5 -30q-28 0 -78.5 13.5t-91.5 31.5l-117 54q-79 36 -137 36q-55 0 -97 -34t-86 -115z" />
<glyph unicode="&#xa0;" horiz-adv-x="681" d="M0 0z" />
<glyph unicode="&#xa1;" horiz-adv-x="583" d="M213 825q0 48 34 82.5t83 34.5q47 0 81.5 -35t34.5 -84q0 -48 -33.5 -82t-82.5 -34q-48 0 -82.5 34.5t-34.5 83.5zM223 -326q0 24 6 93l74 761h49l74 -743q6 -62 6 -102q0 -74 -26.5 -113t-75.5 -39q-51 0 -79 37.5t-28 105.5z" />
<glyph unicode="&#xa2;" d="M150 678q0 197 93.5 329.5t256.5 166.5v172h86v-164q130 -6 209 -62.5t79 -142.5q0 -43 -25 -71.5t-63 -28.5q-35 0 -63.5 22.5t-32.5 54.5v15l-2 14q-7 54 -26.5 76t-75.5 41v-742q8 -2 18 -2q86 0 157.5 63t108.5 169l45 -15l-2 -10q-34 -104 -69 -164 q-40 -69 -86 -112q-34 -33 -70 -50t-102 -32v-170h-86v164q-164 17 -257 144.5t-93 334.5zM311 762q0 -130 49.5 -229t139.5 -150v719q-91 -28 -140 -116.5t-49 -223.5z" />
<glyph unicode="&#xa3;" d="M45 119q0 60 50 98.5t128 38.5q53 0 152 -29q18 73 18 127q0 81 -43 277l-4 22h-188v78h170q-35 153 -35 250q0 183 98 292t264 109q104 0 175 -52t71 -128q0 -41 -27 -68.5t-67 -27.5t-65 23.5t-25 60.5q0 2 6 39q4 16 4 22q0 29 -23 49.5t-55 20.5q-75 0 -122.5 -72.5 t-47.5 -189.5q0 -89 45 -295l8 -33h261v-78h-246q14 -85 14 -159q0 -60 -10 -132q-9 -51 -21 -85t-41 -89q48 -23 85 -30.5t90 -7.5q116 0 188 46.5t72 122.5v7h49q-10 -155 -92.5 -247.5t-208.5 -92.5q-55 0 -105 18.5t-143 73.5l-21 12q-112 -106 -210 -106q-66 0 -107 37 t-41 98zM129 111q0 -25 19 -42.5t47 -17.5q69 0 122 86q-67 33 -112 33q-34 0 -55 -16.5t-21 -42.5z" />
<glyph unicode="&#xa4;" horiz-adv-x="1366" d="M113 1219l80 81l194 -194q77 57 145.5 81.5t151.5 24.5q82 0 151 -24.5t142 -79.5l192 190l82 -79l-192 -193q104 -141 104 -291q0 -79 -24 -146.5t-80 -144.5l194 -194l-79 -80l-195 195q-136 -107 -293 -107q-150 0 -297 102l-192 -190l-80 80l192 192 q-106 132 -106 293q0 153 102 289zM336 735q0 -144 101.5 -246t244.5 -102q145 0 246.5 101.5t101.5 246.5t-101.5 246.5t-246.5 101.5q-143 0 -244.5 -102t-101.5 -246z" />
<glyph unicode="&#xa5;" d="M8 1313v53h461v-53q-63 0 -90 -14t-27 -46q0 -25 19 -65q7 -18 35 -84l163 -399l138 364l20 53q45 109 45 146q0 26 -21 34.5t-83 10.5v53h348v-53q-44 -13 -66 -26t-47 -40q-32 -32 -55 -76q-2 -5 -16 -34t-23 -50q-12 -27 -25 -53l-71 -186h245v-86h-280l-51 -131h331 v-86h-340v-258q0 -80 5 -111t22 -59q36 -61 137 -64h19v-53h-553v53h16q42 0 84 17q34 17 55 47q23 33 23 78q0 2 1 19.5t1 33.5v297h-371v86h357l-52 131h-305v86h271l-64 162q-22 61 -69 147q-41 74 -77.5 104t-109.5 52z" />
<glyph unicode="&#xa7;" horiz-adv-x="884" d="M86 541q0 118 94 219q49 54 121 117q-74 69 -101.5 121t-27.5 124q0 117 84.5 194t214.5 77q107 0 181.5 -62t74.5 -153q0 -43 -23 -71t-59 -28q-31 0 -49 20t-18 54q0 7 4 27l4 22l2 17q2 6 2 20q0 46 -35.5 74t-95.5 28q-71 0 -118.5 -43.5t-47.5 -107.5q0 -48 31 -90 q28 -43 61 -70q5 -5 70 -61q21 -18 30 -27l99 -78q120 -95 167.5 -166.5t47.5 -156.5q0 -59 -25 -117q-23 -49 -47.5 -79.5t-105.5 -104.5l-37 -37q80 -78 106.5 -128t26.5 -120q0 -117 -85 -192.5t-216 -75.5q-109 0 -181.5 60t-72.5 151q0 43 23.5 70.5t60.5 27.5 q28 0 46.5 -19.5t18.5 -48.5q0 -8 -4 -32l-4 -17l-4 -18q0 -3 -1 -10t-1 -11q0 -47 36 -75.5t97 -28.5q72 0 118 41.5t46 107.5q0 81 -78 150q-16 16 -84 74q-38 31 -41 36l-121 99q-72 60 -100 90.5t-51 75.5q-33 56 -33 131zM199 612q0 -43 30 -86.5t101 -105.5l98 -84 l92 -78l27 -22l45 45q48 54 69 94.5t21 85.5q0 59 -41 112q-40 49 -98 99q-109 95 -174 147l-29 25q-75 -72 -108 -126t-33 -106z" />
<glyph unicode="&#xa8;" d="M203 1239q0 46 33 78.5t79 32.5t79.5 -33t33.5 -80q0 -46 -32.5 -78.5t-78.5 -32.5q-47 0 -80.5 33.5t-33.5 79.5zM598 1239q0 46 33 78.5t80 32.5q45 0 77.5 -33t32.5 -78q0 -46 -33 -79.5t-77 -33.5q-47 0 -80 33t-33 80z" />
<glyph unicode="&#xa9;" horiz-adv-x="1624" d="M109 682q0 143 55.5 273.5t150 225t225 150t273.5 55.5t273 -55.5t224 -150t150 -225t56 -273.5q0 -190 -94.5 -352t-256.5 -256t-352 -94q-143 0 -273.5 55.5t-225 150t-150 224t-55.5 272.5zM182 682q0 -129 50 -246.5t134.5 -202.5t201.5 -135.5t245 -50.5 q127 0 243.5 50.5t201 135.5t134.5 202.5t50 246.5q0 130 -49.5 248t-134 203t-201 135.5t-244.5 50.5t-245 -50.5t-201.5 -135.5t-134.5 -203t-50 -248zM426 670q0 186 116 310t289 124q86 0 179 -37l8 -4l8 -2q12 -6 21 -6q14 0 19.5 8t8.5 33l2 6h43v-6v-37 q0 -128 21 -228v-6l-45 -8l-2 6q-23 106 -84 162.5t-150 56.5q-123 0 -200.5 -98.5t-77.5 -253.5q0 -160 77 -257t203 -97q165 0 250 158l4 6l45 -27l-2 -6q-53 -100 -138.5 -153.5t-195.5 -53.5q-168 0 -283.5 119t-115.5 291z" />
<glyph unicode="&#xaa;" horiz-adv-x="681" d="M86 952q0 66 55.5 115.5t173.5 87.5l76 25l8 2v67q0 44 -23.5 69t-64.5 25q-34 0 -57 -18.5t-23 -46.5q0 -12 2 -16l5 -15q0 -2 1 -5.5t1 -4.5q0 -26 -18 -43.5t-44 -17.5t-43.5 17.5t-17.5 45.5q0 62 61 107t146 45t137.5 -39.5t52.5 -102.5v-295q0 -30 6 -40.5 t21 -10.5q23 0 57 37l33 -29l-10 -14q-74 -80 -134 -80q-74 0 -86 78q-80 -80 -163 -80q-65 0 -108.5 39.5t-43.5 97.5zM100 608v68h512v-68h-512zM203 981q0 -34 27 -58t65 -24q31 0 76 29q28 22 28 41v159q-93 -25 -144.5 -63.5t-51.5 -83.5z" />
<glyph unicode="&#xab;" horiz-adv-x="980" d="M57 504l357 446h59l-229 -446l229 -449h-59zM483 504l361 446h59l-231 -446l231 -449h-59z" />
<glyph unicode="&#xac;" d="M68 416v131h888v-547h-143v416h-745z" />
<glyph unicode="&#xad;" horiz-adv-x="458" d="M0 428v162h459v-162h-459z" />
<glyph unicode="&#xae;" d="M102 1153q0 170 120 290t290 120t290 -120t120 -290q0 -169 -120.5 -289.5t-289.5 -120.5t-289.5 120.5t-120.5 289.5zM156 1153q0 -148 104 -252t252 -104t252 104t104 252q0 149 -104 252.5t-252 103.5t-252 -104t-104 -252zM324 942v16h6q32 1 43.5 16.5t11.5 55.5 v246q0 41 -11.5 57t-43.5 17h-6v16h176q151 0 151 -111q0 -38 -25.5 -66.5t-68.5 -39.5l94 -127q27 -38 44.5 -50.5t47.5 -13.5h5v-16h-117l-144 195h-20h-18v-107q0 -41 11.5 -55.5t43.5 -16.5h6v-16h-186zM449 1169q0 -6 4 -7t18 -1q50 0 79.5 24.5t29.5 67.5q0 40 -24 64 t-62 24q-45 0 -45 -16v-156z" />
<glyph unicode="&#xaf;" d="M199 1174v129h626v-129h-626z" />
<glyph unicode="&#xb0;" d="M223 1090q0 117 84.5 199.5t204.5 82.5t204.5 -82.5t84.5 -199.5t-84.5 -200t-204.5 -83t-204.5 83t-84.5 200zM317 1090q0 -78 57 -134.5t138 -56.5q80 0 137.5 56.5t57.5 134.5t-57.5 134t-137.5 56q-82 0 -138.5 -55t-56.5 -135z" />
<glyph unicode="&#xb1;" d="M68 137v133h888v-133h-888zM68 707v133h372v352h144v-352h372v-133h-372v-353h-144v353h-372z" />
<glyph unicode="&#xb4;" d="M446 1069l127 340h224l-283 -340h-68z" />
<glyph unicode="&#xb5;" d="M96 -342v1323h144v-557q0 -85 8 -128t31 -83q31 -57 92 -91t133 -34q96 0 164 59q34 27 61 70q29 47 40 96.5t11 128.5v539h142v-981h-142v178q-24 -53 -40.5 -78.5t-43.5 -52.5q-80 -74 -196 -74q-109 0 -189 64q-30 25 -71 88v-467h-144z" />
<glyph unicode="&#xb6;" horiz-adv-x="1179" d="M43 999q0 77 28 146.5t79 116.5q107 104 344 104h542v-115h-121v-1454h-124v1454h-218v-1454h-124v846h-31q-166 0 -270.5 99.5t-104.5 256.5z" />
<glyph unicode="&#xb7;" horiz-adv-x="256" d="M0 711q0 54 37 91.5t90 37.5q54 0 91.5 -38t37.5 -91v-2q0 -53 -37 -90t-90 -37q-54 0 -91.5 37.5t-37.5 91.5z" />
<glyph unicode="&#xb8;" d="M301 -373l23 43q31 -10 71 -10q63 0 99 24.5t36 65.5q0 31 -22 49.5t-57 18.5q-19 0 -52 -13l129 195h78l-65 -106q5 0 13 1t11 1q44 0 74.5 -31.5t30.5 -77.5q0 -79 -68.5 -127.5t-181.5 -48.5q-62 0 -119 16z" />
<glyph unicode="&#xba;" horiz-adv-x="681" d="M82 1096q0 126 83 210.5t206 84.5q115 0 190.5 -79.5t75.5 -201.5q0 -123 -82.5 -207t-202.5 -84q-116 0 -193 79.5t-77 197.5zM94 608v68h531v-68h-531zM203 1118q0 -106 45.5 -173.5t116.5 -67.5q66 0 107.5 60t41.5 157v14q-5 100 -50 162.5t-112 62.5 q-66 0 -107.5 -60t-41.5 -155z" />
<glyph unicode="&#xbb;" horiz-adv-x="980" d="M76 55l233 449l-233 446h59l363 -446l-363 -449h-59zM508 55l229 449l-229 446h59l357 -446l-357 -449h-59z" />
<glyph unicode="&#xbf;" horiz-adv-x="878" d="M133 -154q0 71 25 138q39 101 157 237q9 10 19.5 21.5t11.5 11.5l21 31q8 8 12 14q33 49 35 55q30 62 30 164q0 17 -2 31h56v-25q-6 -116 -21 -180q-12 -52 -27.5 -88.5t-52.5 -101.5l-10 -19q-25 -44 -43 -90q-39 -88 -39 -178q0 -126 51.5 -200.5t139.5 -74.5 q60 0 104.5 36t44.5 85q0 32 -29 82l-12 17q-22 34 -22 67q0 31 23 52.5t57 21.5q46 0 75 -39t29 -102q0 -117 -93.5 -203t-219.5 -86q-138 0 -229 92t-91 231zM346 825q0 47 34 82t81 35q49 0 84 -35t35 -84q0 -47 -35 -81.5t-82 -34.5q-49 0 -83 34t-34 84z" />
<glyph unicode="&#xc0;" horiz-adv-x="1470" d="M10 0v53q60 2 103 17q82 30 149 188l479 1151l498 -1165l5.5 -11t9 -18.5t10.5 -21.5q20 -44 41 -72q25 -36 59.5 -51.5t95.5 -16.5v-53h-563v53h18q78 5 105 20t27 56q0 22 -11 51l-12 29l-100 237h-488l-88 -213q-31 -70 -31 -106q0 -30 20 -48.5t56 -21.5l58 -2l14 -2 v-53h-455zM344 1751h264l164 -238l-24 -22zM467 518h426l-213 514z" />
<glyph unicode="&#xc1;" horiz-adv-x="1470" d="M10 0v53q60 2 103 17q82 30 149 188l479 1151l498 -1165l5.5 -11t9 -18.5t10.5 -21.5q20 -44 41 -72q25 -36 59.5 -51.5t95.5 -16.5v-53h-563v53h18q78 5 105 20t27 56q0 22 -11 51l-12 29l-100 237h-488l-88 -213q-31 -70 -31 -106q0 -30 20 -48.5t56 -21.5l58 -2l14 -2 v-53h-455zM467 518h426l-213 514zM698 1513l164 238h266l-405 -260z" />
<glyph unicode="&#xc2;" horiz-adv-x="1470" d="M10 0v53q60 2 103 17q82 30 149 188l479 1151l498 -1165l5.5 -11t9 -18.5t10.5 -21.5q20 -44 41 -72q25 -36 59.5 -51.5t95.5 -16.5v-53h-563v53h18q78 5 105 20t27 56q0 22 -11 51l-12 29l-100 237h-488l-88 -213q-31 -70 -31 -106q0 -30 20 -48.5t56 -21.5l58 -2l14 -2 v-53h-455zM432 1524l203 227h199l204 -229l-34 -29l-273 147l-268 -147zM467 518h426l-213 514z" />
<glyph unicode="&#xc3;" horiz-adv-x="1470" d="M10 0v53q60 2 103 17q82 30 149 188l479 1151l498 -1165l5.5 -11t9 -18.5t10.5 -21.5q20 -44 41 -72q25 -36 59.5 -51.5t95.5 -16.5v-53h-563v53h18q78 5 105 20t27 56q0 22 -11 51l-12 29l-100 237h-488l-88 -213q-31 -70 -31 -106q0 -30 20 -48.5t56 -21.5l58 -2l14 -2 v-53h-455zM393 1528l4 6q36 64 88 121q69 78 131 78q24 0 62 -15q13 -3 16 -6l72 -24q86 -29 123 -29q34 0 69.5 16.5t57.5 42.5q1 1 7 9.5t13 19.5l41 -29q-44 -88 -101.5 -145t-103.5 -57q-14 0 -55 12l-76 24l-43 15q-85 26 -125 26q-45 0 -77.5 -21.5t-61.5 -70.5z M467 518h426l-213 514z" />
<glyph unicode="&#xc4;" horiz-adv-x="1470" d="M10 0v53q60 2 103 17q82 30 149 188l479 1151l498 -1165l5.5 -11t9 -18.5t10.5 -21.5q20 -44 41 -72q25 -36 59.5 -51.5t95.5 -16.5v-53h-563v53h18q78 5 105 20t27 56q0 22 -11 51l-12 29l-100 237h-488l-88 -213q-31 -70 -31 -106q0 -30 20 -48.5t56 -21.5l58 -2l14 -2 v-53h-455zM395 1624q0 47 33.5 80t79.5 33q45 0 77.5 -33.5t32.5 -79.5t-32.5 -79.5t-77.5 -33.5q-46 0 -79.5 33.5t-33.5 79.5zM467 518h426l-213 514zM864 1624q0 46 33.5 79.5t79.5 33.5t78 -33t32 -80q0 -46 -32.5 -79.5t-77.5 -33.5q-46 0 -79.5 33.5t-33.5 79.5z" />
<glyph unicode="&#xc5;" horiz-adv-x="1470" d="M10 0v53q60 2 103 17q82 30 149 188l479 1151l498 -1165l5.5 -11t9 -18.5t10.5 -21.5q20 -44 41 -72q25 -36 59.5 -51.5t95.5 -16.5v-53h-563v53h18q78 5 105 20t27 56q0 22 -11 51l-12 29l-100 237h-488l-88 -213q-31 -70 -31 -106q0 -30 20 -48.5t56 -21.5l58 -2l14 -2 v-53h-455zM467 518h426l-213 514zM557 1618q0 75 52.5 127.5t127.5 52.5q72 0 124 -52.5t52 -127.5q0 -72 -52.5 -124t-125.5 -52q-74 0 -126 51.5t-52 124.5zM627 1618q0 -45 31.5 -77t76.5 -32q44 0 75.5 32.5t31.5 78.5q0 44 -32 76.5t-75 32.5q-45 0 -76.5 -32.5 t-31.5 -78.5z" />
<glyph unicode="&#xc6;" horiz-adv-x="1906" d="M10 0v53l29 2q77 3 114.5 27t75.5 94l56 113l28 55l375 748l25 51q39 77 39 108q0 62 -93 62l-71 2v51h1132l21 -330h-53q-22 140 -86 194t-211 54q-6 0 -18.5 -1t-18.5 -1q-14 0 -28 -1t-15 -1h-224v-516h205q27 0 54 2q84 1 109.5 4.5t51.5 17.5q35 19 51 59t21 118h49 v-484h-51q-3 48 -7.5 76t-17.5 52.5t-29.5 36t-50.5 20t-74 10.5t-106 2h-205v-434q0 -60 3 -94q1 -40 18.5 -53t67.5 -13h57h164q1 0 19 1t36 1q72 3 102 8q56 10 107 43q47 32 75.5 72t65.5 125l15 33l47 -17l-109 -350h-1071v53h18q49 0 91 17q34 14 61 47q17 25 23 58 t6 112v254h-373l-152 -303q-31 -63 -38 -82t-7 -41q0 -27 17 -43t47 -17h39l49 -2v-53h-455zM547 616h336v670z" />
<glyph unicode="&#xc7;" horiz-adv-x="1351" d="M102 662q0 203 85.5 369t235.5 260.5t333 94.5q134 0 288 -63q9 -6 15 -6l14 -6q24 -8 37 -8q25 0 38 14.5t19 48.5l2 16h52q-2 -31 -2 -65q0 -216 32 -383l-53 -10q-41 186 -142 283.5t-253 97.5q-134 0 -241 -78t-166.5 -217t-59.5 -314q0 -278 129.5 -446t343.5 -168 q277 0 420 276l55 -34q-157 -312 -491 -342l-48 -78q12 4 27 4q46 0 79.5 -33.5t33.5 -77.5q0 -78 -75 -128t-192 -50q-52 0 -112 14l8 48l12 -3q47 -8 80 -8q56 0 89.5 23t33.5 61q0 32 -25 52t-65 20q-11 0 -49 -6l117 160q-110 14 -183 39.5t-143 76.5q-133 97 -206 245 t-73 321z" />
<glyph unicode="&#xc8;" horiz-adv-x="1302" d="M80 0v53h18q44 0 90 17q38 15 60 47q18 24 23 56t5 114v792q0 80 -5 111.5t-23 58.5q-40 62 -150 62l-18 2v53h1032l23 -332h-54q-17 132 -83 189t-201 57h-316v-518l271 2q103 0 149 22q72 40 72 179h51v-484h-51q-3 51 -6 69t-15 46q-15 37 -49 55q-24 14 -53 19t-98 6 l-271 4v-494q0 -66 15.5 -84t72.5 -18h271q39 0 51 2q122 3 207 82q60 58 110 197l49 -15l-106 -350h-1071zM276 1751h265l166 -238l-27 -22z" />
<glyph unicode="&#xc9;" horiz-adv-x="1302" d="M80 0v53h18q44 0 90 17q38 15 60 47q18 24 23 56t5 114v792q0 80 -5 111.5t-23 58.5q-40 62 -150 62l-18 2v53h1032l23 -332h-54q-17 132 -83 189t-201 57h-316v-518l271 2q103 0 149 22q72 40 72 179h51v-484h-51q-3 51 -6 69t-15 46q-15 37 -49 55q-24 14 -53 19t-98 6 l-271 4v-494q0 -66 15.5 -84t72.5 -18h271q39 0 51 2q122 3 207 82q60 58 110 197l49 -15l-106 -350h-1071zM563 1513l164 238h266l-405 -260z" />
<glyph unicode="&#xca;" horiz-adv-x="1302" d="M80 0v53h18q44 0 90 17q38 15 60 47q18 24 23 56t5 114v792q0 80 -5 111.5t-23 58.5q-40 62 -150 62l-18 2v53h1032l23 -332h-54q-17 132 -83 189t-201 57h-316v-518l271 2q103 0 149 22q72 40 72 179h51v-484h-51q-3 51 -6 69t-15 46q-15 37 -49 55q-24 14 -53 19t-98 6 l-271 4v-494q0 -66 15.5 -84t72.5 -18h271q39 0 51 2q122 3 207 82q60 58 110 197l49 -15l-106 -350h-1071zM367 1524l202 227h199l203 -229l-35 -29l-270 147l-269 -147z" />
<glyph unicode="&#xcb;" horiz-adv-x="1302" d="M80 0v53h18q44 0 90 17q38 15 60 47q18 24 23 56t5 114v792q0 80 -5 111.5t-23 58.5q-40 62 -150 62l-18 2v53h1032l23 -332h-54q-17 132 -83 189t-201 57h-316v-518l271 2q103 0 149 22q72 40 72 179h51v-484h-51q-3 51 -6 69t-15 46q-15 37 -49 55q-24 14 -53 19t-98 6 l-271 4v-494q0 -66 15.5 -84t72.5 -18h271q39 0 51 2q122 3 207 82q60 58 110 197l49 -15l-106 -350h-1071zM283 1624q0 47 32 80t78 33t78.5 -33.5t32.5 -79.5t-32.5 -79.5t-78.5 -33.5q-45 0 -77.5 33.5t-32.5 79.5zM750 1624q0 46 33 79.5t79 33.5t78.5 -33t32.5 -80 q0 -46 -32.5 -79.5t-78.5 -33.5t-79 33.5t-33 79.5z" />
<glyph unicode="&#xcc;" horiz-adv-x="757" d="M-2 1751h266l164 -238l-25 -22zM76 0v53h20q44 0 90 17q38 15 60 47q17 25 22.5 57.5t5.5 112.5v792q0 80 -5 111.5t-23 58.5q-40 62 -150 62l-20 2v53h602v-53l-21 -2q-44 0 -90 -17q-35 -11 -59 -45q-18 -26 -23.5 -57.5t-5.5 -112.5v-792q0 -80 5 -111.5t24 -58.5 q39 -61 149 -64h21v-53h-602z" />
<glyph unicode="&#xcd;" horiz-adv-x="757" d="M76 0v53h20q44 0 90 17q38 15 60 47q17 25 22.5 57.5t5.5 112.5v792q0 80 -5 111.5t-23 58.5q-40 62 -150 62l-20 2v53h602v-53l-21 -2q-44 0 -90 -17q-35 -11 -59 -45q-18 -26 -23.5 -57.5t-5.5 -112.5v-792q0 -80 5 -111.5t24 -58.5q39 -61 149 -64h21v-53h-602z M326 1513l166 238h264l-406 -260z" />
<glyph unicode="&#xce;" horiz-adv-x="757" d="M74 1524l202 227h199l205 -229l-35 -29l-272 147l-269 -147zM76 0v53h20q44 0 90 17q38 15 60 47q17 25 22.5 57.5t5.5 112.5v792q0 80 -5 111.5t-23 58.5q-40 62 -150 62l-20 2v53h602v-53l-21 -2q-44 0 -90 -17q-35 -11 -59 -45q-18 -26 -23.5 -57.5t-5.5 -112.5v-792 q0 -80 5 -111.5t24 -58.5q39 -61 149 -64h21v-53h-602z" />
<glyph unicode="&#xcf;" horiz-adv-x="757" d="M59 1624q0 46 32.5 78.5t78.5 32.5q47 0 81 -34t34 -81q0 -45 -33 -78t-78 -33q-47 0 -81 34t-34 81zM76 0v53h20q44 0 90 17q38 15 60 47q17 25 22.5 57.5t5.5 112.5v792q0 80 -5 111.5t-23 58.5q-40 62 -150 62l-20 2v53h602v-53l-21 -2q-44 0 -90 -17q-35 -11 -59 -45 q-18 -26 -23.5 -57.5t-5.5 -112.5v-792q0 -80 5 -111.5t24 -58.5q39 -61 149 -64h21v-53h-602zM469 1624q0 46 33 78.5t80 32.5q46 0 79 -33.5t33 -79.5t-32.5 -79.5t-79.5 -33.5q-46 0 -79.5 34t-33.5 81z" />
<glyph unicode="&#xd1;" horiz-adv-x="1558" d="M10 1313v53h400l794 -936v649q0 80 -5 111.5t-23 58.5q-40 62 -150 62l-20 2v53h485v-53l-18 -2q-49 0 -91 -17q-34 -11 -61 -45q-18 -27 -23.5 -59.5t-5.5 -110.5v-1095l-930 1106v-803q0 -80 5 -111.5t24 -58.5q39 -61 150 -64h18v-53h-483v53h18q44 0 90 17 q38 15 60 47q18 24 23 56t5 114v909q-38 45 -82 74q-42 25 -78.5 34t-101.5 9zM436 1528l4 6q24 43 40.5 65.5t47.5 55.5q69 78 129 78q25 0 62 -15q15 -3 18 -6l72 -24q86 -29 121 -29q34 0 69.5 16.5t57.5 42.5q9 9 20 29l41 -29q-42 -87 -100 -144.5t-103 -57.5 q-13 0 -57 12l-74 24l-43 15q-88 26 -127 26q-83 0 -137 -92z" />
<glyph unicode="&#xd2;" horiz-adv-x="1488" d="M104 674q0 142 41 270q62 192 234.5 317t376.5 125q177 0 320.5 -89.5t225.5 -247t82 -351.5q0 -329 -192 -524q-92 -94 -210.5 -144t-246.5 -50q-182 0 -326 88.5t-224.5 246.5t-80.5 359zM338 680q0 -280 111 -449.5t294 -169.5q186 0 298 169t112 450 q0 286 -107.5 455.5t-289.5 169.5q-189 0 -303.5 -171.5t-114.5 -453.5zM352 1751h266l164 -238l-24 -22z" />
<glyph unicode="&#xd3;" horiz-adv-x="1488" d="M104 674q0 142 41 270q62 192 234.5 317t376.5 125q177 0 320.5 -89.5t225.5 -247t82 -351.5q0 -329 -192 -524q-92 -94 -210.5 -144t-246.5 -50q-182 0 -326 88.5t-224.5 246.5t-80.5 359zM338 680q0 -280 111 -449.5t294 -169.5q186 0 298 169t112 450 q0 286 -107.5 455.5t-289.5 169.5q-189 0 -303.5 -171.5t-114.5 -453.5zM709 1513l163 238h265l-404 -260z" />
<glyph unicode="&#xd4;" horiz-adv-x="1488" d="M104 674q0 142 41 270q62 192 234.5 317t376.5 125q177 0 320.5 -89.5t225.5 -247t82 -351.5q0 -329 -192 -524q-92 -94 -210.5 -144t-246.5 -50q-182 0 -326 88.5t-224.5 246.5t-80.5 359zM338 680q0 -280 111 -449.5t294 -169.5q186 0 298 169t112 450 q0 286 -107.5 455.5t-289.5 169.5q-189 0 -303.5 -171.5t-114.5 -453.5zM442 1524l203 227h199l203 -229l-35 -29l-271 147l-268 -147z" />
<glyph unicode="&#xd5;" horiz-adv-x="1488" d="M104 674q0 142 41 270q62 192 234.5 317t376.5 125q177 0 320.5 -89.5t225.5 -247t82 -351.5q0 -329 -192 -524q-92 -94 -210.5 -144t-246.5 -50q-182 0 -326 88.5t-224.5 246.5t-80.5 359zM338 680q0 -280 111 -449.5t294 -169.5q186 0 298 169t112 450 q0 286 -107.5 455.5t-289.5 169.5q-189 0 -303.5 -171.5t-114.5 -453.5zM403 1528l5 6q24 43 40.5 65.5t47.5 55.5q69 78 129 78q23 0 61 -15q16 -3 19 -6l71 -24q86 -29 121 -29q34 0 69.5 16.5t57.5 42.5q9 9 20 29l41 -29q-43 -87 -100.5 -144.5t-101.5 -57.5 q-15 0 -58 12l-73 24l-43 15q-88 26 -127 26q-84 0 -138 -92z" />
<glyph unicode="&#xd6;" horiz-adv-x="1488" d="M104 674q0 142 41 270q62 192 234.5 317t376.5 125q177 0 320.5 -89.5t225.5 -247t82 -351.5q0 -329 -192 -524q-92 -94 -210.5 -144t-246.5 -50q-182 0 -326 88.5t-224.5 246.5t-80.5 359zM338 680q0 -280 111 -449.5t294 -169.5q186 0 298 169t112 450 q0 286 -107.5 455.5t-289.5 169.5q-189 0 -303.5 -171.5t-114.5 -453.5zM399 1624q0 47 32.5 80t78.5 33t78.5 -33.5t32.5 -79.5t-32.5 -79.5t-76.5 -33.5q-47 0 -80 33.5t-33 79.5zM866 1624q0 46 33.5 79.5t79.5 33.5t78.5 -33t32.5 -80q0 -46 -32.5 -79.5t-78.5 -33.5 t-79.5 33.5t-33.5 79.5z" />
<glyph unicode="&#xd8;" horiz-adv-x="1488" d="M104 666q0 152 43 280q40 126 133 227t218 157t258 56q224 0 393 -149l117 141l59 -49l-121 -145q178 -187 178 -494q0 -323 -190 -516q-90 -93 -209.5 -143.5t-247.5 -50.5q-238 0 -411 153l-123 -143l-60 49l127 147q-87 112 -125.5 224.5t-38.5 255.5zM338 676 q0 -169 55 -340l658 784q-56 94 -128.5 139.5t-168.5 45.5q-188 0 -302 -172.5t-114 -456.5zM428 258q110 -197 313 -197q186 0 298 167t112 444q0 101 -17.5 202t-46.5 170z" />
<glyph unicode="&#xd9;" horiz-adv-x="1542" d="M63 1313v53h601v-53l-19 -2q-47 0 -90 -17q-34 -11 -61 -45q-18 -27 -23.5 -59.5t-5.5 -110.5v-567v-57q0 -90 12.5 -143.5t44.5 -100.5q46 -69 127.5 -110.5t173.5 -41.5q126 0 232 72q75 52 106 127t31 203v59v559q0 79 -5.5 111t-23.5 59q-40 62 -149 62l-21 2v53h496 v-53l-19 -2q-44 0 -90 -17q-35 -11 -59 -45q-18 -26 -23.5 -57.5t-5.5 -112.5v-567q0 -133 -22.5 -218t-73.5 -147q-64 -78 -175 -122.5t-239 -44.5q-123 0 -230 39.5t-179 111.5q-52 56 -78 111q-33 78 -33 153q-2 12 -2 117v567q0 79 -5.5 111t-23.5 59q-40 62 -149 62z M438 1751h267l163 -238l-24 -22z" />
<glyph unicode="&#xda;" horiz-adv-x="1542" d="M63 1313v53h601v-53l-19 -2q-47 0 -90 -17q-34 -11 -61 -45q-18 -27 -23.5 -59.5t-5.5 -110.5v-567v-57q0 -90 12.5 -143.5t44.5 -100.5q46 -69 127.5 -110.5t173.5 -41.5q126 0 232 72q75 52 106 127t31 203v59v559q0 79 -5.5 111t-23.5 59q-40 62 -149 62l-21 2v53h496 v-53l-19 -2q-44 0 -90 -17q-35 -11 -59 -45q-18 -26 -23.5 -57.5t-5.5 -112.5v-567q0 -133 -22.5 -218t-73.5 -147q-64 -78 -175 -122.5t-239 -44.5q-123 0 -230 39.5t-179 111.5q-52 56 -78 111q-33 78 -33 153q-2 12 -2 117v567q0 79 -5.5 111t-23.5 59q-40 62 -149 62z M780 1513l164 238h266l-405 -260z" />
<glyph unicode="&#xdb;" horiz-adv-x="1542" d="M63 1313v53h601v-53l-19 -2q-47 0 -90 -17q-34 -11 -61 -45q-18 -27 -23.5 -59.5t-5.5 -110.5v-567v-57q0 -90 12.5 -143.5t44.5 -100.5q46 -69 127.5 -110.5t173.5 -41.5q126 0 232 72q75 52 106 127t31 203v59v559q0 79 -5.5 111t-23.5 59q-40 62 -149 62l-21 2v53h496 v-53l-19 -2q-44 0 -90 -17q-35 -11 -59 -45q-18 -26 -23.5 -57.5t-5.5 -112.5v-567q0 -133 -22.5 -218t-73.5 -147q-64 -78 -175 -122.5t-239 -44.5q-123 0 -230 39.5t-179 111.5q-52 56 -78 111q-33 78 -33 153q-2 12 -2 117v567q0 79 -5.5 111t-23.5 59q-40 62 -149 62z M528 1524l203 227h199l203 -229l-35 -29l-271 147l-268 -147z" />
<glyph unicode="&#xdc;" horiz-adv-x="1542" d="M63 1313v53h601v-53l-19 -2q-47 0 -90 -17q-34 -11 -61 -45q-18 -27 -23.5 -59.5t-5.5 -110.5v-567v-57q0 -90 12.5 -143.5t44.5 -100.5q46 -69 127.5 -110.5t173.5 -41.5q126 0 232 72q75 52 106 127t31 203v59v559q0 79 -5.5 111t-23.5 59q-40 62 -149 62l-21 2v53h496 v-53l-19 -2q-44 0 -90 -17q-35 -11 -59 -45q-18 -26 -23.5 -57.5t-5.5 -112.5v-567q0 -133 -22.5 -218t-73.5 -147q-64 -78 -175 -122.5t-239 -44.5q-123 0 -230 39.5t-179 111.5q-52 56 -78 111q-33 78 -33 153q-2 12 -2 117v567q0 79 -5.5 111t-23.5 59q-40 62 -149 62z M485 1624q0 47 32.5 80t78.5 33t78.5 -33.5t32.5 -79.5t-32.5 -79.5t-76.5 -33.5q-47 0 -80 33.5t-33 79.5zM952 1624q0 46 33.5 79.5t79.5 33.5t78.5 -33t32.5 -80q0 -46 -32.5 -79.5t-78.5 -33.5t-79.5 33.5t-33.5 79.5z" />
<glyph unicode="&#xdf;" horiz-adv-x="1087" d="M61 0v47q20 4 23 4q71 10 92 29q29 29 29 104v815q0 155 59 240q46 63 122 98t171 35q161 0 262 -83.5t101 -217.5q0 -96 -50.5 -161.5t-162.5 -112.5q62 -24 93.5 -42t65.5 -48q62 -56 96.5 -139t34.5 -175q0 -110 -45 -204.5t-121 -150.5t-163 -56q-83 0 -140 46 t-57 113q0 43 27 74t65 31q32 0 55 -23t23 -57q0 -13 -4 -29l-8 -24l-2 -17v-4q0 -21 14.5 -34t38.5 -13q58 0 96.5 82t38.5 207q0 169 -72.5 271t-210.5 130v74q68 5 105 20q51 25 81 82.5t30 130.5q0 114 -55 184t-146 70q-49 0 -88.5 -23t-59.5 -63q-18 -38 -24 -79.5 t-6 -129.5v-827q0 -57 20.5 -86t67.5 -41v-47h-396z" />
<glyph unicode="&#xe0;" horiz-adv-x="964" d="M96 195q0 112 86.5 195t274.5 151l123 43l20 8v129q0 83 -41 128.5t-113 45.5q-62 0 -101.5 -36t-39.5 -91q0 -19 2 -25l4 -12l2 -10t1.5 -7t0.5 -3q0 -2 1 -8t1 -9q0 -38 -24.5 -64t-59.5 -26q-40 0 -65 26.5t-25 69.5q0 104 96 180t228 76q131 0 214 -66.5t83 -172.5 v-516q0 -61 10.5 -83t42.5 -22q43 0 92 60l37 -35l-10 -15q-58 -69 -100 -98q-56 -39 -105 -39t-82 29q-26 22 -35 45t-14 78q-139 -154 -272 -154q-99 0 -165.5 65.5t-66.5 162.5zM156 1409h223l125 -336h-66zM258 244q0 -64 47 -109t113 -45q62 0 129 53q53 39 53 82v295 q-119 -31 -223 -94q-119 -72 -119 -182z" />
<glyph unicode="&#xe1;" horiz-adv-x="964" d="M96 195q0 112 86.5 195t274.5 151l123 43l20 8v129q0 83 -41 128.5t-113 45.5q-62 0 -101.5 -36t-39.5 -91q0 -19 2 -25l4 -12l2 -10t1.5 -7t0.5 -3q0 -2 1 -8t1 -9q0 -38 -24.5 -64t-59.5 -26q-40 0 -65 26.5t-25 69.5q0 104 96 180t228 76q131 0 214 -66.5t83 -172.5 v-516q0 -61 10.5 -83t42.5 -22q43 0 92 60l37 -35l-10 -15q-58 -69 -100 -98q-56 -39 -105 -39t-82 29q-26 22 -35 45t-14 78q-139 -154 -272 -154q-99 0 -165.5 65.5t-66.5 162.5zM258 244q0 -64 47 -109t113 -45q62 0 129 53q53 39 53 82v295q-119 -31 -223 -94 q-119 -72 -119 -182zM428 1069l127 340h223l-282 -340h-68z" />
<glyph unicode="&#xe2;" horiz-adv-x="964" d="M96 195q0 112 86.5 195t274.5 151l123 43l20 8v129q0 83 -41 128.5t-113 45.5q-62 0 -101.5 -36t-39.5 -91q0 -19 2 -25l4 -12l2 -10t1.5 -7t0.5 -3q0 -2 1 -8t1 -9q0 -38 -24.5 -64t-59.5 -26q-40 0 -65 26.5t-25 69.5q0 104 96 180t228 76q131 0 214 -66.5t83 -172.5 v-516q0 -61 10.5 -83t42.5 -22q43 0 92 60l37 -35l-10 -15q-58 -69 -100 -98q-56 -39 -105 -39t-82 29q-26 22 -35 45t-14 78q-139 -154 -272 -154q-99 0 -165.5 65.5t-66.5 162.5zM164 1073l205 336h211l217 -336h-58l-260 217l-260 -217h-55zM258 244q0 -64 47 -109 t113 -45q62 0 129 53q53 39 53 82v295q-119 -31 -223 -94q-119 -72 -119 -182z" />
<glyph unicode="&#xe3;" horiz-adv-x="964" d="M96 195q0 112 86.5 195t274.5 151l123 43l20 8v129q0 83 -41 128.5t-113 45.5q-62 0 -101.5 -36t-39.5 -91q0 -19 2 -25l4 -12l2 -10t1.5 -7t0.5 -3q0 -2 1 -8t1 -9q0 -38 -24.5 -64t-59.5 -26q-40 0 -65 26.5t-25 69.5q0 104 96 180t228 76q131 0 214 -66.5t83 -172.5 v-516q0 -61 10.5 -83t42.5 -22q43 0 92 60l37 -35l-10 -15q-58 -69 -100 -98q-56 -39 -105 -39t-82 29q-26 22 -35 45t-14 78q-139 -154 -272 -154q-99 0 -165.5 65.5t-66.5 162.5zM129 1137q41 85 109.5 149t117.5 64q25 0 58 -11l45 -16l55 -20q79 -25 123 -25 q109 0 154 86l38 -25l-6 -10l-45 -74q-35 -58 -80.5 -93.5t-83.5 -35.5q-29 0 -88 19q-2 2 -5.5 3t-5 1.5t-1.5 1.5l-86 27q-3 3 -22 6q-59 16 -66 16q-8 2 -25 2q-90 0 -149 -88zM258 244q0 -64 47 -109t113 -45q62 0 129 53q53 39 53 82v295q-119 -31 -223 -94 q-119 -72 -119 -182z" />
<glyph unicode="&#xe4;" horiz-adv-x="964" d="M96 195q0 112 86.5 195t274.5 151l123 43l20 8v129q0 83 -41 128.5t-113 45.5q-62 0 -101.5 -36t-39.5 -91q0 -19 2 -25l4 -12l2 -10t1.5 -7t0.5 -3q0 -2 1 -8t1 -9q0 -38 -24.5 -64t-59.5 -26q-40 0 -65 26.5t-25 69.5q0 104 96 180t228 76q131 0 214 -66.5t83 -172.5 v-516q0 -61 10.5 -83t42.5 -22q43 0 92 60l37 -35l-10 -15q-58 -69 -100 -98q-56 -39 -105 -39t-82 29q-26 22 -35 45t-14 78q-139 -154 -272 -154q-99 0 -165.5 65.5t-66.5 162.5zM172 1239q0 46 32.5 78.5t78.5 32.5q47 0 79.5 -33t32.5 -80q0 -46 -32 -78.5t-78 -32.5 t-79.5 33.5t-33.5 79.5zM258 244q0 -64 47 -109t113 -45q62 0 129 53q53 39 53 82v295q-119 -31 -223 -94q-119 -72 -119 -182zM565 1239q0 46 33.5 78.5t79.5 32.5t78 -32.5t32 -78.5t-32.5 -79.5t-77.5 -33.5q-46 0 -79.5 33t-33.5 80z" />
<glyph unicode="&#xe5;" horiz-adv-x="964" d="M96 195q0 112 86.5 195t274.5 151l123 43l20 8v129q0 83 -41 128.5t-113 45.5q-62 0 -101.5 -36t-39.5 -91q0 -19 2 -25l4 -12l2 -10t1.5 -7t0.5 -3q0 -2 1 -8t1 -9q0 -38 -24.5 -64t-59.5 -26q-40 0 -65 26.5t-25 69.5q0 104 96 180t228 76q131 0 214 -66.5t83 -172.5 v-516q0 -61 10.5 -83t42.5 -22q43 0 92 60l37 -35l-10 -15q-58 -69 -100 -98q-56 -39 -105 -39t-82 29q-26 22 -35 45t-14 78q-139 -154 -272 -154q-99 0 -165.5 65.5t-66.5 162.5zM258 244q0 -64 47 -109t113 -45q62 0 129 53q53 39 53 82v295q-119 -31 -223 -94 q-119 -72 -119 -182zM291 1241q0 72 51.5 124t124.5 52t124.5 -52.5t51.5 -127.5q0 -70 -52 -121t-124 -51q-73 0 -124.5 51.5t-51.5 124.5zM367 1239q0 -40 29.5 -69t70.5 -29q40 0 69 29t29 69q0 41 -29 70.5t-69 29.5q-41 0 -70.5 -29.5t-29.5 -70.5z" />
<glyph unicode="&#xe6;" horiz-adv-x="1449" d="M94 203q0 84 55 155.5t158 122.5q104 49 293 111v59q0 78 -4 112t-16 62q-15 32 -50.5 52t-78.5 20q-60 0 -103 -35.5t-43 -85.5q0 -12 2 -18l4 -25q6 -30 6 -45q0 -34 -25 -59t-59 -25q-40 0 -65 28t-25 73q0 101 97.5 176t228.5 75q61 0 113 -14q59 -19 90.5 -43.5 t70.5 -83.5q100 141 265 141q149 0 240 -108t98 -295h-586q3 -115 10 -166q20 -121 90.5 -187.5t177.5 -66.5q215 0 287 229h53q-26 -180 -130.5 -284.5t-258.5 -104.5q-77 0 -151 30.5t-123 82.5q-27 31 -58 78q-173 -191 -331 -191q-97 0 -164.5 66.5t-67.5 163.5z M258 252q0 -66 47 -112t115 -46q92 0 211 131q-23 79 -27 154q-4 37 -4 113v32q-180 -57 -261 -121.5t-81 -150.5zM766 629h385q-1 107 -48.5 168t-129.5 61t-137.5 -62t-69.5 -167z" />
<glyph unicode="&#xe7;" horiz-adv-x="913" d="M94 453q0 223 121 363t313 140q120 0 205.5 -59.5t85.5 -144.5q0 -43 -25 -72t-63 -29q-35 0 -63 23t-33 55v14l-2 15q-9 60 -47 91.5t-101 31.5q-100 0 -164.5 -96.5t-64.5 -247.5q0 -169 84.5 -287.5t204.5 -118.5q89 0 161 62t109 169l45 -14l-2 -10q-22 -67 -22 -68 q-54 -135 -134 -209q-33 -32 -67 -48.5t-103 -35.5l-53 -83q5 0 14 1t11 1q45 0 74.5 -31.5t29.5 -77.5q0 -79 -68.5 -127.5t-181.5 -48.5q-61 0 -118 16l22 43q34 -10 74 -10q61 0 97 24.5t36 65.5q0 31 -22.5 49.5t-57.5 18.5q-19 0 -51 -13l113 168q-164 12 -260.5 141.5 t-96.5 338.5z" />
<glyph unicode="&#xe8;" horiz-adv-x="946" d="M94 461q0 218 111.5 356.5t288.5 138.5q151 0 241 -101.5t101 -281.5l2 -18h-609v-20q0 -177 86.5 -287.5t223.5 -110.5q106 0 179 59t101 166h55q-18 -90 -36 -141q-43 -113 -135.5 -180.5t-204.5 -67.5q-180 0 -292 135t-112 353zM188 1409h222l127 -336h-68zM233 629 h412q-3 113 -50.5 172t-135.5 59q-92 0 -149.5 -58.5t-76.5 -172.5z" />
<glyph unicode="&#xe9;" horiz-adv-x="946" d="M94 461q0 218 111.5 356.5t288.5 138.5q151 0 241 -101.5t101 -281.5l2 -18h-609v-20q0 -177 86.5 -287.5t223.5 -110.5q106 0 179 59t101 166h55q-18 -90 -36 -141q-43 -113 -135.5 -180.5t-204.5 -67.5q-180 0 -292 135t-112 353zM233 629h412q-3 113 -50.5 172 t-135.5 59q-92 0 -149.5 -58.5t-76.5 -172.5zM446 1069l127 340h224l-283 -340h-68z" />
<glyph unicode="&#xea;" horiz-adv-x="946" d="M94 461q0 218 111.5 356.5t288.5 138.5q151 0 241 -101.5t101 -281.5l2 -18h-609v-20q0 -177 86.5 -287.5t223.5 -110.5q106 0 179 59t101 166h55q-18 -90 -36 -141q-43 -113 -135.5 -180.5t-204.5 -67.5q-180 0 -292 135t-112 353zM182 1073l205 336h211l217 -336h-57 l-260 217l-260 -217h-56zM233 629h412q-3 113 -50.5 172t-135.5 59q-92 0 -149.5 -58.5t-76.5 -172.5z" />
<glyph unicode="&#xeb;" horiz-adv-x="946" d="M94 461q0 218 111.5 356.5t288.5 138.5q151 0 241 -101.5t101 -281.5l2 -18h-609v-20q0 -177 86.5 -287.5t223.5 -110.5q106 0 179 59t101 166h55q-18 -90 -36 -141q-43 -113 -135.5 -180.5t-204.5 -67.5q-180 0 -292 135t-112 353zM176 1239q0 46 33 78.5t80 32.5 q46 0 79 -33t33 -80q0 -46 -33 -78.5t-79 -32.5t-79.5 33.5t-33.5 79.5zM233 629h412q-3 113 -50.5 172t-135.5 59q-92 0 -149.5 -58.5t-76.5 -172.5zM571 1239q0 46 32.5 78.5t78.5 32.5t78.5 -32.5t32.5 -78.5t-32.5 -79.5t-78.5 -33.5t-78.5 33t-32.5 80z" />
<glyph unicode="&#xec;" horiz-adv-x="571" d="M4 1409h221l127 -336h-67zM51 0v47l15 2q86 6 113.5 33t27.5 102v502q0 56 -15.5 81.5t-50.5 25.5q-19 0 -69 -17v49q54 18 106 45q16 7 43.5 20.5t38.5 18.5q66 32 111 66v-791q0 -75 28.5 -102t114.5 -33l14 -2v-47h-477z" />
<glyph unicode="&#xed;" horiz-adv-x="571" d="M51 0v47l15 2q86 6 113.5 33t27.5 102v502q0 56 -15.5 81.5t-50.5 25.5q-19 0 -69 -17v49q54 18 106 45q16 7 43.5 20.5t38.5 18.5q66 32 111 66v-791q0 -75 28.5 -102t114.5 -33l14 -2v-47h-477zM201 1069l127 340h223l-283 -340h-67z" />
<glyph unicode="&#xee;" horiz-adv-x="571" d="M37 1067l168 342h145l174 -342h-69l-179 188l-174 -188h-65zM51 0v47l15 2q86 6 113.5 33t27.5 102v502q0 56 -15.5 81.5t-50.5 25.5q-19 0 -69 -17v49q54 18 106 45q16 7 43.5 20.5t38.5 18.5q66 32 111 66v-791q0 -75 28.5 -102t114.5 -33l14 -2v-47h-477z" />
<glyph unicode="&#xef;" horiz-adv-x="571" d="M6 1239q0 46 33 78.5t80 32.5q46 0 79 -33.5t33 -79.5t-33 -78.5t-79 -32.5t-79.5 33.5t-33.5 79.5zM51 0v47l15 2q86 6 113.5 33t27.5 102v502q0 56 -15.5 81.5t-50.5 25.5q-19 0 -69 -17v49q54 18 106 45q16 7 43.5 20.5t38.5 18.5q66 32 111 66v-791q0 -75 28.5 -102 t114.5 -33l14 -2v-47h-477zM328 1237q0 47 33 80t79 33q47 0 80 -32.5t33 -78.5q0 -47 -33 -81t-80 -34q-46 0 -79 33.5t-33 79.5z" />
<glyph unicode="&#xf1;" horiz-adv-x="1130" d="M49 0v47l14 2q86 6 115 33t29 102v502q0 60 -16.5 85.5t-53.5 25.5q-25 0 -49 -6q-17 -4 -29 -9v52q27 5 97 30q107 43 215 105v-213q72 105 147 153.5t166 48.5q123 0 189.5 -80.5t66.5 -230.5v-463q0 -75 27.5 -102t113.5 -33l15 -2v-47h-478v47l15 2q86 6 114.5 33 t28.5 102v465q0 81 -44 125.5t-124 44.5q-77 0 -133.5 -34t-103.5 -109v-492q0 -75 27.5 -102t113.5 -33l14 -2v-47h-477zM223 1137q39 84 108.5 148.5t117.5 64.5q28 0 57 -11l45 -16l57 -20q76 -25 121 -25q111 0 156 86l39 -25l-9 -10l-45 -74q-35 -58 -80 -93.5 t-83 -35.5q-30 0 -89 19q-3 2 -7 3.5t-5 2.5l-86 27q-3 3 -22 6q-59 16 -66 16q-8 2 -24 2q-88 0 -150 -88z" />
<glyph unicode="&#xf2;" horiz-adv-x="1062" d="M96 449q0 216 130.5 361.5t324.5 145.5q180 0 299 -137t119 -346q0 -211 -130 -355.5t-319 -144.5q-181 0 -302.5 136.5t-121.5 339.5zM248 1409h223l125 -336h-66zM268 487q0 -191 77.5 -315.5t195.5 -124.5q113 0 183.5 110t70.5 287q0 4 -1 12.5t-1 12.5 q-7 184 -83 298t-192 114q-109 0 -179.5 -110.5t-70.5 -283.5z" />
<glyph unicode="&#xf3;" horiz-adv-x="1062" d="M96 449q0 216 130.5 361.5t324.5 145.5q180 0 299 -137t119 -346q0 -211 -130 -355.5t-319 -144.5q-181 0 -302.5 136.5t-121.5 339.5zM268 487q0 -191 77.5 -315.5t195.5 -124.5q113 0 183.5 110t70.5 287q0 4 -1 12.5t-1 12.5q-7 184 -83 298t-192 114 q-109 0 -179.5 -110.5t-70.5 -283.5zM467 1069l125 340h223l-283 -340h-65z" />
<glyph unicode="&#xf4;" horiz-adv-x="1062" d="M96 449q0 216 130.5 361.5t324.5 145.5q180 0 299 -137t119 -346q0 -211 -130 -355.5t-319 -144.5q-181 0 -302.5 136.5t-121.5 339.5zM215 1073l207 336h211l215 -336h-57l-261 217l-258 -217h-57zM268 487q0 -191 77.5 -315.5t195.5 -124.5q113 0 183.5 110t70.5 287 q0 4 -1 12.5t-1 12.5q-7 184 -83 298t-192 114q-109 0 -179.5 -110.5t-70.5 -283.5z" />
<glyph unicode="&#xf5;" horiz-adv-x="1062" d="M96 449q0 216 130.5 361.5t324.5 145.5q180 0 299 -137t119 -346q0 -211 -130 -355.5t-319 -144.5q-181 0 -302.5 136.5t-121.5 339.5zM182 1137q39 84 108.5 148.5t117.5 64.5q28 0 57 -11l45 -16l57 -20q76 -25 121 -25q111 0 156 86l39 -25l-9 -10l-45 -74 q-35 -58 -80 -93.5t-83 -35.5q-29 0 -88 19q-3 2 -7.5 3.5t-5.5 2.5l-86 27q-3 3 -22 6q-59 16 -66 16q-8 2 -24 2q-88 0 -150 -88zM268 487q0 -191 77.5 -315.5t195.5 -124.5q113 0 183.5 110t70.5 287q0 4 -1 12.5t-1 12.5q-7 184 -83 298t-192 114q-109 0 -179.5 -110.5 t-70.5 -283.5z" />
<glyph unicode="&#xf6;" horiz-adv-x="1062" d="M96 449q0 216 130.5 361.5t324.5 145.5q180 0 299 -137t119 -346q0 -211 -130 -355.5t-319 -144.5q-181 0 -302.5 136.5t-121.5 339.5zM223 1239q0 46 33 78.5t80 32.5q46 0 79.5 -33t33.5 -80q0 -46 -33.5 -78.5t-79.5 -32.5t-79.5 33.5t-33.5 79.5zM268 487 q0 -191 77.5 -315.5t195.5 -124.5q113 0 183.5 110t70.5 287q0 4 -1 12.5t-1 12.5q-7 184 -83 298t-192 114q-109 0 -179.5 -110.5t-70.5 -283.5zM616 1239q0 46 33.5 78.5t79.5 32.5t78.5 -32.5t32.5 -78.5t-32.5 -79.5t-78.5 -33.5t-79.5 33t-33.5 80z" />
<glyph unicode="&#xf7;" d="M68 614v134h888v-134h-888zM414 307q0 40 28.5 69.5t69.5 29.5q40 0 69 -29t29 -70q0 -40 -29 -69t-69 -29t-69 29t-29 69zM414 1055q0 41 28.5 69.5t69.5 28.5q40 0 69 -28.5t29 -69.5q0 -40 -29 -69.5t-69 -29.5t-69 29.5t-29 69.5z" />
<glyph unicode="&#xf8;" horiz-adv-x="1062" d="M96 449q0 216 130.5 361.5t324.5 145.5q140 0 256 -94l78 103l51 -39l-84 -109q117 -149 117 -344q0 -211 -130 -355.5t-319 -144.5q-133 0 -248 84l-73 -96l-54 41l78 100q-67 74 -97 157t-30 190zM268 487q0 -138 49 -260l404 525q-84 129 -203 129 q-109 0 -179.5 -110.5t-70.5 -283.5zM352 162q74 -115 189 -115q112 0 183 110t71 283q0 125 -43 246z" />
<glyph unicode="&#xf9;" horiz-adv-x="1138" d="M41 881v47h321v-613q0 -106 39 -155t125 -49q141 0 242 131v501q0 75 -28.5 102.5t-114.5 33.5l-15 2v47h322v-678q0 -77 19 -109t65 -32q14 0 59 10v-49q-46 -8 -131 -39q-85 -33 -92 -35q-50 -21 -84 -43v213q-85 -106 -154.5 -150.5t-152.5 -44.5q-121 0 -191.5 75 t-70.5 204v493q0 75 -29 102.5t-115 33.5zM207 1409h221l127 -336h-66z" />
<glyph unicode="&#xfa;" horiz-adv-x="1138" d="M41 881v47h321v-613q0 -106 39 -155t125 -49q141 0 242 131v501q0 75 -28.5 102.5t-114.5 33.5l-15 2v47h322v-678q0 -77 19 -109t65 -32q14 0 59 10v-49q-46 -8 -131 -39q-85 -33 -92 -35q-50 -21 -84 -43v213q-85 -106 -154.5 -150.5t-152.5 -44.5q-121 0 -191.5 75 t-70.5 204v493q0 75 -29 102.5t-115 33.5zM467 1069l125 340h223l-283 -340h-65z" />
<glyph unicode="&#xfb;" horiz-adv-x="1138" d="M41 881v47h321v-613q0 -106 39 -155t125 -49q141 0 242 131v501q0 75 -28.5 102.5t-114.5 33.5l-15 2v47h322v-678q0 -77 19 -109t65 -32q14 0 59 10v-49q-46 -8 -131 -39q-85 -33 -92 -35q-50 -21 -84 -43v213q-85 -106 -154.5 -150.5t-152.5 -44.5q-121 0 -191.5 75 t-70.5 204v493q0 75 -29 102.5t-115 33.5zM227 1073l207 336h211l217 -336h-59l-260 217l-258 -217h-58z" />
<glyph unicode="&#xfc;" horiz-adv-x="1138" d="M41 881v47h321v-613q0 -106 39 -155t125 -49q141 0 242 131v501q0 75 -28.5 102.5t-114.5 33.5l-15 2v47h322v-678q0 -77 19 -109t65 -32q14 0 59 10v-49q-46 -8 -131 -39q-85 -33 -92 -35q-50 -21 -84 -43v213q-85 -106 -154.5 -150.5t-152.5 -44.5q-121 0 -191.5 75 t-70.5 204v493q0 75 -29 102.5t-115 33.5zM223 1239q0 46 32.5 78.5t78.5 32.5q47 0 79.5 -33t32.5 -80q0 -46 -32 -78.5t-78 -32.5t-79.5 33.5t-33.5 79.5zM616 1239q0 46 33.5 78.5t79.5 32.5t78.5 -32.5t32.5 -78.5t-32.5 -79.5t-78.5 -33.5t-79.5 33t-33.5 80z" />
<glyph unicode="&#xff;" horiz-adv-x="956" d="M18 881v47h416v-47q-58 -1 -81 -18.5t-23 -59.5q0 -25 12 -60l178 -503l129 329q2 8 10.5 28.5t12.5 31.5q30 83 37.5 111t7.5 57q0 43 -25 61t-88 21l-24 2v47h362v-47q-60 -3 -87.5 -34.5t-74.5 -152.5l-12 -26l-266 -670q-48 -125 -80 -178q-38 -69 -105 -111.5 t-135 -42.5q-53 0 -86 28.5t-33 74.5q0 41 29.5 66.5t75.5 25.5q29 0 70 -21l12 -6l18 -8q9 -6 21 -6q63 0 117 125l28 71l-266 736q-28 77 -58.5 103t-91.5 26zM199 1239q0 46 33 78.5t79 32.5t79.5 -33t33.5 -80q0 -46 -32.5 -78.5t-78.5 -32.5q-47 0 -80.5 33.5 t-33.5 79.5zM594 1239q0 46 33 78.5t80 32.5q45 0 77.5 -33t32.5 -78q0 -46 -33 -79.5t-77 -33.5q-47 0 -80 33t-33 80z" />
<glyph unicode="&#x152;" horiz-adv-x="1986" d="M104 674q0 316 183 508q88 92 214.5 148t248.5 56q64 0 157 -20h893l19 -330h-54q-15 84 -37.5 128.5t-64.5 72.5q-44 33 -113 39q-14 1 -45.5 2t-48.5 2h-35h-256v-516h183l79 2q74 0 109.5 7t62.5 26q28 22 40.5 59t15.5 107h51v-484h-51q-3 72 -15.5 107t-42.5 57 q-27 20 -76 26.5t-169 6.5h-187v-418q0 -85 3.5 -116.5t15.5 -41.5q18 -18 98 -18h199q20 0 45 2q87 2 127.5 11t81.5 38q52 34 86.5 85.5t68.5 146.5l52 -19l-107 -348h-944q-93 -20 -162 -20q-129 0 -248 55q-181 82 -279 247.5t-98 391.5zM338 680q0 -278 114 -448.5 t300 -170.5q58 0 111 19t75 47q14 21 18.5 48.5t4.5 103.5v757q0 29 -1.5 66t-1.5 43q-3 57 -30 94q-22 31 -66 48.5t-100 17.5q-190 0 -307 -172.5t-117 -452.5z" />
<glyph unicode="&#x153;" horiz-adv-x="1650" d="M92 449q0 215 132 361t327 146q88 0 166 -34q62 -28 96.5 -57t79.5 -93q30 48 49 70q44 52 115.5 83t148.5 31q153 0 250 -118q46 -55 66 -118t26 -167h-583v-21q0 -401 276 -401q105 0 179.5 59.5t105.5 167.5h53q-25 -179 -129.5 -283t-259.5 -104q-62 0 -129 23 q-65 22 -103.5 52t-89.5 97q-138 -170 -348 -170q-183 0 -305.5 136.5t-122.5 339.5zM266 483q0 -188 78.5 -312t196.5 -124q110 0 182 110t72 277v33q-8 189 -82.5 301.5t-194.5 112.5q-109 0 -180.5 -112.5t-71.5 -285.5zM969 629h387q-7 81 -27 127q-19 46 -61.5 74 t-93.5 28q-52 0 -97.5 -29t-70.5 -79q-26 -50 -37 -121z" />
<glyph unicode="&#x178;" horiz-adv-x="1429" d="M10 1313v53h606v-53h-26q-65 -1 -91 -17t-26 -53q0 -29 16 -55q1 -1 3.5 -5t8 -12.5t11.5 -17.5l274 -444l275 452q33 53 33 88q0 34 -26 49t-87 15h-20v53h458v-53q-102 -3 -152 -36.5t-116 -141.5l-326 -543v-305q0 -80 5 -111.5t24 -58.5q39 -61 150 -64h18v-53h-600 v53h18q48 0 90 17q36 14 62 47q17 25 23 58t6 112v303l-359 586q-48 76 -76 98q-51 39 -161 39h-15zM397 1624q0 47 32.5 80t78.5 33q45 0 77.5 -33.5t32.5 -79.5t-32.5 -79.5t-77.5 -33.5q-46 0 -78.5 33.5t-32.5 79.5zM864 1624q0 46 33.5 79.5t79.5 33.5t78 -33t32 -80 q0 -46 -32.5 -79.5t-77.5 -33.5q-46 0 -79.5 33.5t-33.5 79.5z" />
<glyph unicode="&#x2c6;" d="M195 1073l206 336h211l217 -336h-59l-260 217l-258 -217h-57z" />
<glyph unicode="&#x2dc;" d="M162 1137q40 84 108.5 148.5t118.5 64.5q26 0 55 -11l45 -16l58 -20q76 -25 123 -25q108 0 153 86l39 -25l-6 -10l-47 -74q-35 -58 -80.5 -93.5t-83.5 -35.5q-27 0 -86 19q-3 2 -6.5 3t-5 1.5t-2.5 1.5l-86 27q-3 3 -23 6q-59 16 -65 16q-8 2 -23 2q-90 0 -149 -88z" />
<glyph unicode="&#x2000;" horiz-adv-x="899" />
<glyph unicode="&#x2001;" horiz-adv-x="1798" />
<glyph unicode="&#x2002;" horiz-adv-x="899" />
<glyph unicode="&#x2003;" horiz-adv-x="1798" />
<glyph unicode="&#x2004;" horiz-adv-x="599" />
<glyph unicode="&#x2005;" horiz-adv-x="449" />
<glyph unicode="&#x2006;" horiz-adv-x="299" />
<glyph unicode="&#x2007;" horiz-adv-x="299" />
<glyph unicode="&#x2008;" horiz-adv-x="224" />
<glyph unicode="&#x2009;" horiz-adv-x="359" />
<glyph unicode="&#x200a;" horiz-adv-x="99" />
<glyph unicode="&#x2010;" horiz-adv-x="458" d="M0 428v162h459v-162h-459z" />
<glyph unicode="&#x2011;" horiz-adv-x="458" d="M0 428v162h459v-162h-459z" />
<glyph unicode="&#x2012;" horiz-adv-x="458" d="M0 428v162h459v-162h-459z" />
<glyph unicode="&#x2013;" d="M68 614v134h888v-134h-888z" />
<glyph unicode="&#x2014;" horiz-adv-x="1296" d="M0 453v112h1296v-112h-1296z" />
<glyph unicode="&#x2018;" horiz-adv-x="518" d="M115 1057q0 120 73 205q31 34 68 59q76 57 100 57q9 0 17 -6.5t8 -15.5t-12 -21l-13 -8q-153 -115 -153 -237q0 -60 30 -60q6 0 27 6l14 6q25 5 31 5q40 0 66 -28t26 -71q0 -47 -30 -76.5t-76 -29.5q-77 0 -126.5 60.5t-49.5 154.5z" />
<glyph unicode="&#x2019;" horiz-adv-x="518" d="M121 1272q0 47 29.5 76.5t76.5 29.5q75 0 125.5 -61t50.5 -154q0 -121 -75 -205q-31 -34 -68 -59q-76 -57 -100 -57q-9 0 -16 6.5t-7 15.5q0 11 13 21l12 8q153 112 153 237q0 60 -30 60q-8 0 -29 -6l-14 -6q-20 -4 -31 -4q-38 0 -64 28t-26 70z" />
<glyph unicode="&#x201a;" horiz-adv-x="518" d="M121 92q0 48 29.5 78.5t76.5 30.5q75 0 125.5 -61.5t50.5 -153.5q0 -121 -75 -205q-31 -35 -68 -62q-78 -55 -100 -55q-9 0 -16 7t-7 16q0 10 13 18l12 10q153 112 153 236q0 59 -30 59q-15 0 -29 -6l-14 -4q-15 -6 -31 -6q-38 0 -64 28.5t-26 69.5z" />
<glyph unicode="&#x201c;" horiz-adv-x="882" d="M115 1057q0 120 73 205q31 34 68 59q76 57 100 57q9 0 17 -6.5t8 -15.5t-12 -21l-13 -8q-153 -115 -153 -237q0 -60 30 -60q6 0 27 6l14 6q25 5 31 5q40 0 66 -28t26 -71q0 -47 -30 -76.5t-76 -29.5q-77 0 -126.5 60.5t-49.5 154.5zM479 1057q0 117 76 205q31 34 68 59 q76 57 100 57q9 0 15.5 -6.5t6.5 -15.5q0 -11 -12 -21l-12 -8q-60 -44 -92 -84q-62 -78 -62 -153q0 -60 31 -60q8 0 29 6l14 6q25 5 31 5q38 0 64 -28t26 -71q0 -47 -29.5 -76.5t-75.5 -29.5q-77 0 -127.5 61t-50.5 154z" />
<glyph unicode="&#x201d;" horiz-adv-x="882" d="M121 1272q0 47 29.5 76.5t76.5 29.5q75 0 125.5 -61t50.5 -154q0 -121 -75 -205q-31 -34 -68 -59q-76 -57 -100 -57q-9 0 -16 6.5t-7 15.5q0 11 13 21l12 8q153 112 153 237q0 60 -30 60q-8 0 -29 -6l-14 -6q-20 -4 -31 -4q-38 0 -64 28t-26 70zM485 1272q0 47 30.5 76.5 t76.5 29.5q77 0 126.5 -60.5t49.5 -154.5q0 -118 -74 -205q-32 -36 -67 -59q-76 -57 -101 -57q-9 0 -15.5 6.5t-6.5 15.5q0 14 10 21l14 8q152 113 152 237q0 60 -31 60q-2 0 -26 -6l-15 -6q-20 -4 -30 -4q-40 0 -66.5 27.5t-26.5 70.5z" />
<glyph unicode="&#x201e;" horiz-adv-x="882" d="M121 84q0 47 29 76.5t75 29.5q77 0 127.5 -61t50.5 -154q0 -117 -75 -204q-33 -37 -68 -60q-76 -57 -100 -57q-9 0 -16 6.5t-7 15.5q0 11 13 21l12 8q153 115 153 238q0 59 -30 59q-8 0 -29 -6l-14 -4q-15 -6 -31 -6q-38 0 -64 28t-26 70zM485 84q0 47 30.5 76.5 t76.5 29.5q77 0 126.5 -60.5t49.5 -154.5q0 -114 -74 -204q-34 -38 -67 -60q-76 -57 -101 -57q-9 0 -16.5 6.5t-7.5 15.5t12 21l14 8q43 33 58.5 47t34.5 37q59 74 59 154q0 59 -31 59q-10 0 -26 -6l-15 -4q-15 -6 -30 -6q-40 0 -66.5 27.5t-26.5 70.5z" />
<glyph unicode="&#x2022;" horiz-adv-x="1366" d="M401 696q0 119 83 203t200 84q116 0 198.5 -84.5t82.5 -202.5t-82.5 -202t-198.5 -84q-117 0 -200 84t-83 202z" />
<glyph unicode="&#x2026;" horiz-adv-x="1695" d="M180 96q0 48 34 82.5t83 34.5t83 -34.5t34 -84.5q0 -47 -34 -82t-81 -35q-49 0 -84 34.5t-35 84.5zM745 96q0 48 34 82.5t83 34.5q48 0 82.5 -35t34.5 -84q0 -47 -34 -82t-81 -35q-50 0 -84.5 34.5t-34.5 84.5zM1311 96q0 48 33.5 82.5t82.5 34.5q48 0 82.5 -35t34.5 -84 q0 -48 -33.5 -82.5t-80.5 -34.5q-50 0 -84.5 34.5t-34.5 84.5z" />
<glyph unicode="&#x202f;" horiz-adv-x="359" />
<glyph unicode="&#x2039;" horiz-adv-x="544" d="M53 504l361 446h59l-231 -446l231 -449h-59z" />
<glyph unicode="&#x203a;" horiz-adv-x="544" d="M72 55l233 449l-233 446h59l363 -446l-363 -449h-59z" />
<glyph unicode="&#x205f;" horiz-adv-x="449" />
<glyph unicode="&#x2122;" horiz-adv-x="1814" d="M39 1182l12 184h641l13 -182h-29q-9 75 -41 101t-117 26h-86v-561q0 -54 6 -76t25 -37q25 -19 69 -19l23 -2v-28h-365v28l23 2q44 0 72 21q18 13 24 35.5t6 75.5v561h-77q-89 0 -126 -28t-44 -101h-29zM768 588v28l10 2q48 0 72 21q19 13 25 35.5t6 75.5v452q0 54 -6 76 t-25 37q-22 17 -72 20h-10v31h223l271 -571l270 571h219v-31h-10q-53 -3 -72 -20q-19 -15 -25 -37t-6 -76v-452q0 -54 6 -76t25 -37q25 -19 72 -19l10 -2v-28h-342v28l10 2q48 0 72 21q19 13 25 35.5t6 75.5v464l-295 -622l-295 618v-460q0 -55 5.5 -76.5t25.5 -36.5 q25 -19 69 -19l12 -2v-28h-276z" />
<glyph unicode="&#x25fc;" horiz-adv-x="931" d="M0 0v932h932v-932h-932z" />
<glyph unicode="&#xfb01;" horiz-adv-x="1124" d="M47 0v47l14 2q86 6 114 33t28 102v676h-137v68h137q0 12 1 31t1 26q2 103 21.5 169t66.5 126q112 139 319 139q120 0 202.5 -48t82.5 -118q0 -37 -24 -60.5t-62 -23.5q-34 0 -57 18t-49 64l-9 15q-43 75 -135 75q-60 0 -104.5 -30t-63.5 -84q-26 -69 -26 -238v-61h215 q98 0 196 10q78 10 146 39v-793q0 -75 27.5 -102t113.5 -33l14 -2v-47h-477v47l14 2q86 6 115 33t29 102v512l-2 25q0 68 -2 74q0 29 -17 49q-13 13 -43 16h-57h-272v-676q0 -75 28.5 -102t114.5 -33l14 -2v-47h-477z" />
<glyph unicode="&#xfb02;" horiz-adv-x="1124" d="M49 0v47l14 2q86 6 115 33t29 102v676h-139v68h135v65q0 195 93 306.5t257 111.5q24 0 70 -8q43 -7 72 -23t73 -55q110 49 156 80v-1221q0 -75 28.5 -102t114.5 -33l14 -2v-47h-477v47l14 2q86 6 114 33t28 102v994q-30 -15 -47 -15q-26 0 -55.5 21t-49.5 53l-10 20 q-1 0 -1.5 1.5t-1.5 3.5t-3 4q-13 32 -39.5 50.5t-58.5 18.5q-34 0 -62.5 -20.5t-40.5 -54.5q-11 -26 -14 -66q-6 -62 -6 -147v-119h233v-68h-233v-676q0 -75 27.5 -102t113.5 -33l14 -2v-47h-477z" />
</font>
</defs>
</svg>
