<?xml version="1.0" encoding="UTF-8" standalone="no" ?>
<?xml-stylesheet href="/assets/css/logo.css" type="text/css" ?>
  <svg xmlns="http://www.w3.org/2000/svg" xmlns:xlink="http://www.w3.org/1999/xlink" width="600" height="600" preserveAspectRatio="xMinYMin meet" viewBox="0 0 600 600">
    <defs>
      <path id="header-path"
            d="M 300 300
            m -170, 0
            a 170, 170 0 1,1 340,0" />
      <path id="subheader-path"
            d="M 300 300
              m -225, 0
              a 225,225 0 1,0  450,0
              a 225,225 0 1,0 -450,0" />
    </defs>
    <g>
      <circle class="logo-bg" cx="300" cy="300" r="283" />
      <circle class="logo-fg" cx="300" cy="300" r="265" />
      <circle class="logo-bg" cx="300" cy="300" r="260" />
      <circle class="logo-fg" cx="300" cy="300" r="250" />
      <circle class="logo-bg" cx="300" cy="300" r="245" />
      <g id="logo" transform="scale(1 -1) translate(0 -700)">
        <path id="figure" class="logo-fg" d="m 435.01172,487.27393 0,0.64453 -14.18652,5.8208 -0.42286,-0.0459 c -15.75,-1.71777 -24.43261,4.35596 -34.48632,11.38965 -11.35547,7.94336 -24.17969,16.91357 -49.71582,15.78515 -5.08008,16.07862 -20.11231,27.73584 -37.87012,27.73584 -18.30322,0 -33.7041,-12.38525 -38.30469,-29.22851 -19.69385,-0.69385 -30.49756,-8.02051 -40.13623,-14.55713 -8.91406,-6.0459 -16.61279,-11.26709 -29.84228,-11.26709 -2.77784,0 -5.88038,0.2832 -9.76563,0.89111 l -0.45068,0.0708 -14.23487,-5.65869 0,-0.64941 C 148.90674,462.86035 139.17041,432.5498 139.17041,400 c 0,-88.68164 72.14795,-160.8291 160.82959,-160.8291 88.68164,0 160.8291,72.14746 160.8291,160.8291 0,32.15234 -9.50097,62.11865 -25.81738,87.27393 M 165.5957,317.99512 C 150.95947,341.89551 142.51172,369.97949 142.51172,400 c 0,30.01563 8.45117,58.08887 23.08398,81.98633 l 0,-163.99121 m 266.0752,167.68359 0,-75.23535 c -2.26074,0.92871 -4.87305,1.75879 -7.89746,2.46582 -0.52246,0.12207 -1.01465,0.22949 -1.51856,0.34375 l 0,76.28857 c 2.92188,-1.19873 8.16504,-3.34961 9.41602,-3.86279 M 384,502.34521 c 9.78125,-6.84277 19.08105,-13.27294 34.91309,-12.09863 l 0,-76.2749 c -12.0752,2.44531 -19.07325,2.07617 -29.42774,-1.2207 0.26465,1.07519 0.4209,2.1914 0.4209,3.34765 0,7.40821 -5.76855,13.45069 -13.05371,13.9253 l -25.11035,35.22753 -42.32617,-5.04443 0,10.54981 c 16.53613,4.79931 28.62695,20.0498 28.62695,38.1333 0,2.97802 -0.33789,5.87549 -0.95996,8.66601 23.88281,0.89112 35.58887,-7.28662 46.91699,-15.21094 M 270.08154,347.30176 c -3.89306,0 -7.4165,-0.30274 -10.67675,-0.81543 l -7.25245,11.42578 45.91407,24.30762 0.26367,-0.085 0,-43.31446 c -9.08008,5.53907 -18.66455,8.48145 -28.24854,8.48145 m 28.24854,-12.41699 0,-12.48438 c -9.07862,7.43945 -18.91113,11.53613 -28.24854,11.53613 -0.91699,0 -1.80566,-0.0225 -2.67334,-0.0605 l -6.04394,9.52343 c 2.69873,0.36036 5.58887,0.56055 8.71728,0.56055 9.56787,0 19.17725,-3.14746 28.24854,-9.07519 m 11.08594,104.82861 32.75586,3.90332 19.80371,-27.78174 c 0.10449,-5.55566 3.44824,-10.31055 8.22461,-12.46777 l -21.59571,-15.98926 -39.18847,12.57227 0,39.76318 m -7.7461,-58.65088 50.65528,-16.25 34.77636,25.74805 c 13.47754,-6.71485 22.07324,-15.06641 31.81153,-18.39063 l 0,-46.80371 c -1.15235,-0.041 -2.42969,-0.0859 -2.42969,-0.0859 -15.12988,0 -24.69238,5.42188 -34.81543,11.16407 -10.28125,5.83007 -21.93164,12.43652 -38.08106,12.43652 -16.65625,0 -28.43945,-3.66504 -41.91699,-11.21875 l 0,43.40039 M 181.69385,490.87256 c 3.17334,-0.43701 5.89355,-0.66211 8.35303,-0.66211 14.25585,0 22.7373,5.75244 31.71728,11.84277 9.53809,6.46875 19.3877,13.11817 37.49707,13.93701 -0.4165,-2.30468 -0.64551,-4.6748 -0.64551,-7.10009 0,-18.74219 12.98731,-34.44092 30.44971,-38.61621 l 0,-12.41944 -32.37647,-22.93359 -18.71484,16.91162 c -0.64209,7.79639 -7.16162,13.92676 -15.12353,13.92676 -8.3877,0 -15.18702,-6.79883 -15.18702,-15.18701 0,-8.38721 6.79932,-15.18653 15.18702,-15.18653 0.91992,0 1.8164,0.0952 2.6914,0.25196 l 29.60205,-26.74903 33.92139,24.02783 0,-32.43603 -65.89355,-34.88477 16.37109,-25.79297 c -2.46973,-1.25976 -4.8374,-2.583 -7.18164,-3.89843 -9.04102,-5.07325 -17.58057,-9.86426 -30.92432,-9.86426 -7.14941,0 -13.6123,0.82715 -19.74316,2.45898 l 0,162.37354 m -1.31446,-165.50537 c 6.5459,-1.78809 13.44239,-2.66895 21.05762,-2.66895 14.2168,0 23.54151,5.23242 32.5586,10.29199 2.39599,1.34375 4.8125,2.7002 7.34619,3.97852 l 5.27197,-8.30664 c -0.24561,-0.23438 -0.50586,-0.43457 -0.7627,-0.64453 -1.56884,-0.79297 -3.12158,-1.63574 -4.69336,-2.50781 -5.53906,-1.77149 -11.92382,-0.68457 -16.02929,-0.68457 -10.71973,0 -20.33887,-5.58008 -23.14697,-12.1377 -0.1836,-0.002 -0.35889,-0.0127 -0.54444,-0.0127 -11.13232,0 -21.43213,1.8545 -30.73437,5.39649 l 9.67675,7.2959 M 168.93701,486.5874 c 1.27539,0.50733 6.53028,2.59619 9.41602,3.74268 l 0,-162.30762 -9.41602,-7.09863 0,165.66357 M 300,242.51172 c -55.94727,0 -105.16699,29.32812 -133.11084,73.41308 10.27637,-4.33886 21.80762,-6.55371 34.28369,-6.58496 -0.008,-0.15429 -0.0396,-0.30664 -0.0396,-0.46093 0,-11.79493 8.80811,-20.04688 22.78027,-20.04688 16.12403,0 31.68506,6.48438 57.02442,23.72852 L 269.498,330.58398 c 0.19677,0.002 0.38427,0.0117 0.58349,0.0117 9.72412,0 20.11914,-4.9248 29.51416,-13.74902 16.26758,10.57324 26.98535,15.32812 43.99121,15.32812 11.74219,0 20.53125,-4.98437 29.83789,-10.26171 11.0254,-6.25098 23.52149,-13.33789 43.0586,-13.33789 3.36133,0 7.94922,0.19043 12.65625,1.39355 C 400.64551,269.21973 353.38672,242.51172 300,242.51172 m 116.4834,69.4043 c -18.65625,0 -30.22363,6.55957 -41.41016,12.90429 -9.70117,5.5 -18.8623,10.69629 -31.48633,10.69629 -16.42871,0 -27.17871,-4.19238 -41.91699,-13.39355 l 0,11.69336 c 13.69531,7.90039 25.32031,11.72265 41.91699,11.72265 15.26856,0 26.51172,-6.37597 36.43067,-12.00097 10.52051,-5.96582 20.4541,-11.59864 36.46582,-11.59864 l 3.52051,0.12403 9.9873,-8.31641 c -4.91113,-1.56348 -9.9375,-1.83105 -13.50781,-1.83105 m 5.77148,12.62207 0,46.69336 c 1.66309,-0.34668 3.37403,-0.542 5.16309,-0.542 1.49023,0 2.90723,0.15039 4.25293,0.41993 l 0,-54.41407 -9.41602,7.84278 m 12.75684,47.56347 c 6.58203,2.68848 10.63086,9.09082 10.63086,18.02735 0,6.88574 -1.62403,13.8291 -10.63086,18.73339 l 0,72.11622 C 449.26758,457.2998 457.48828,429.5957 457.48828,400 c 0,-29.60156 -8.21484,-57.31836 -22.47656,-81.00098 l 0,53.10254 z" />
      </g>
      <text class="logo-fg logo-header-text" text-anchor="middle">
        <textPath xlink:href="#header-path" startOffset="50%">DSIO</textPath>
      </text>
      <text class="logo-fg logo-header-sub-text" text-anchor="middle" transform="rotate(90, 300, 300)">
        <textPath xlink:href="#subheader-path" startOffset="50%">DE STUDERENDES IDRÆT ODENSE</textPath>
      </text>
    </g>
  </svg>
